<svg width="24" height="24" viewBox="0 0 24 24" fill="none" xmlns="http://www.w3.org/2000/svg">
<path d="M12 0C5.38311 0 0 5.38311 0 12C0 18.6169 5.38311 24 12 24C18.6169 24 24 18.6169 24 12C24 5.38311 18.6169 0 12 0ZM10.6667 5.44356C10.6667 4.77067 11.2649 4.22311 12 4.22311C12.7351 4.22311 13.3333 4.77333 13.3333 5.44533V13.4453C13.3333 14.1182 12.7351 14.6658 12 14.6658C11.2649 14.6658 10.6667 14.1156 10.6667 13.4436V5.44356ZM12 19.7787C10.9911 19.7787 10.1689 18.9591 10.1689 17.9476C10.1689 16.9396 10.9911 16.1164 12 16.1164C13.0089 16.1164 13.8311 16.9396 13.8311 17.9476C13.8311 18.9591 13.0089 19.7787 12 19.7787Z" fill="#32A7E5"/>
</svg>
