<svg version="1.0" xmlns="http://www.w3.org/2000/svg" xmlns:xlink="http://www.w3.org/1999/xlink" viewBox="0 0 300 300"><circle fill="#7C63F7" cx="150" cy="150" r="150"/><image overflow="visible" opacity=".46" width="94" height="25" xlink:href="EF75B538.html" transform="translate(107.045 202.045)"/><path d="M119.529 211.194c.108 0 .148.067.135.161l-1.144 6.285a.208.208 0 01-.134.162 6.994 6.994 0 01-2.53.498c-1.763 0-2.719-1.131-2.382-2.921l.727-4.051a.161.161 0 01.161-.135h.808c.094 0 .148.067.121.161l-.74 4.092c-.242 1.346.31 1.884 1.4 1.884.579 0 1.157-.121 1.575-.282l1.049-5.72c0-.081.067-.135.148-.135h.806zm8.14-.147c1.75 0 2.651 1.116 2.342 2.88l-.74 4.091c0 .081-.067.135-.148.135h-.794c-.094 0-.148-.067-.134-.161l.74-4.132c.215-1.306-.296-1.857-1.359-1.844-.552 0-1.117.175-1.561.431.134.403.148.875.054 1.427l-.74 4.145a.16.16 0 01-.162.135h-.794c-.094 0-.148-.067-.135-.161l.754-4.199c.202-1.225-.229-1.776-1.225-1.776a3.57 3.57 0 00-1.413.296l-1.05 5.706c-.014.095-.067.135-.162.135h-.781c-.107 0-.148-.067-.134-.161l1.144-6.285c.013-.067.054-.121.134-.162a5.918 5.918 0 012.342-.497c.727 0 1.292.201 1.669.578.687-.38 1.44-.581 2.153-.581zm10.023 0c2.032 0 2.732 1.305 2.449 2.974l-.256 1.508c-.282 1.723-1.467 2.772-3.136 2.772-.659 0-1.238-.162-1.682-.444l-.498 2.719c-.013.08-.067.134-.161.134h-.794c-.094 0-.148-.066-.121-.161l1.561-8.748c.014-.08.041-.121.108-.161.672-.365 1.722-.593 2.53-.593zm1.372 2.88c.242-1.427-.283-1.911-1.467-1.911-.592 0-1.158.147-1.561.35l-.808 4.522c.39.269.996.431 1.521.431 1.117 0 1.844-.619 2.046-1.857l.269-1.535zm4.466 4.374c-1.709 0-2.638-1.266-2.355-2.8l.35-1.938c.256-1.44 1.521-2.517 3.23-2.517 1.804 0 2.638 1.358 2.369 2.771l-.35 1.925c-.296 1.549-1.521 2.559-3.244 2.559zm.095-.97c1.171 0 1.898-.687 2.059-1.655l.35-1.938c.162-.929-.269-1.723-1.4-1.723-1.104 0-1.844.687-2.032 1.642l-.336 1.938c-.176 1.009.255 1.736 1.359 1.736zm6.996.97c-2.059 0-2.745-1.306-2.476-2.975l.256-1.508c.296-1.709 1.494-2.771 3.162-2.771.66 0 1.266.175 1.723.43l.498-2.813c.014-.08.067-.135.162-.135h.794c.094 0 .147.067.135.162l-1.589 8.977c0 .067-.054.121-.121.161-.66.296-1.724.472-2.544.472zm.094-.97c.633 0 1.225-.121 1.588-.296l.821-4.589c-.403-.256-1.036-.431-1.562-.431-1.13 0-1.857.646-2.072 1.884l-.256 1.521c-.242 1.4.27 1.911 1.481 1.911zm6.835.97c-1.696 0-2.624-1.131-2.328-2.826l.336-1.925c.27-1.521 1.494-2.503 3.109-2.503.78 0 1.48.255 2.072.699.067.054.067.121.014.202l-.417.538c-.055.067-.121.081-.202.027a2.576 2.576 0 00-1.534-.498c-1.063 0-1.776.646-1.951 1.588l-.351 1.938c-.202 1.145.351 1.804 1.346 1.804.579 0 1.266-.229 1.831-.619.08-.067.161-.04.201.041l.337.592c.04.094.026.147-.054.215-.727.471-1.508.727-2.409.727zm5.812 0c-1.439 0-2.691-.835-2.382-2.423.242-1.306 1.494-1.925 3.041-1.925.593 0 1.198.081 1.643.175l.107-.578c.175-.982-.148-1.534-1.346-1.534a3.87 3.87 0 00-1.938.524c-.08.054-.161.027-.188-.067l-.255-.578c-.027-.081-.027-.148.04-.188.673-.417 1.534-.659 2.503-.659 1.683 0 2.544 1.036 2.262 2.57l-.7 4.051c-.014.081-.067.121-.121.161-.687.241-1.683.471-2.666.471zm.081-.97c.646 0 1.278-.121 1.709-.242l.35-2.019a8.332 8.332 0 00-1.521-.161c-1.13 0-1.79.39-1.925 1.104-.16.887.445 1.318 1.387 1.318zm6.62.97c-1.023 0-1.871-.31-2.53-.902-.067-.054-.067-.135-.027-.201l.391-.539c.054-.08.135-.08.202-.026.565.471 1.225.713 2.032.713.995 0 1.628-.391 1.749-1.022.162-.754-.538-.969-1.386-1.198-.848-.242-2.437-.848-2.153-2.354.229-1.238 1.507-1.723 2.826-1.723.861 0 1.588.215 2.261.646.081.04.081.121.027.202l-.431.578c-.054.067-.121.081-.202.041-.471-.323-1.104-.498-1.776-.498-.861 0-1.534.296-1.643.929-.121.767.768 1.05 1.508 1.238 1.306.322 2.288 1.022 2.06 2.274-.244 1.276-1.523 1.842-2.908 1.842zm6.026-6.071l-.659 3.755c-.148.889.148 1.359.901 1.359.108 0 .323-.014.512-.014.095 0 .148.041.121.148l-.107.659c-.014.067-.067.135-.148.135a6.994 6.994 0 01-.498.027c-1.197 0-2.153-.74-1.856-2.409l1.116-6.271c.014-.081.067-.135.162-.135h.632c.081 0 .148.054.135.147l-.161 1.629h1.494c.107 0 .147.067.134.161l-.121.66c0 .08-.067.147-.161.147h-1.496zm8.773-1.183c1.614 0 2.638 1.104 2.314 2.92l-.27 1.48c-.363 2.032-1.749 2.854-3.485 2.854a5.535 5.535 0 01-2.368-.565c-.081-.027-.095-.095-.095-.175l1.588-8.896c.014-.08.067-.135.148-.135h.808c.094 0 .135.067.121.162l-.498 2.826a3.47 3.47 0 011.737-.471zm1.225 2.812c.242-1.278-.323-1.857-1.454-1.857-.619 0-1.211.229-1.695.579l-.78 4.44c.39.188.901.31 1.413.31 1.171 0 1.991-.578 2.247-1.951l.269-1.521zm7.387-2.53c.014-.067.067-.135.162-.135h.807c.095 0 .148.067.135.161l-1.185 6.636c-.336 1.816-1.346 2.853-3.176 2.853-1.117 0-1.857-.35-2.423-.929-.054-.08-.054-.134 0-.201l.458-.539c.054-.067.135-.08.216-.013a2.54 2.54 0 001.789.699c1.212 0 1.871-.713 2.06-1.965l.054-.282c-.512.175-1.076.31-1.615.31-1.588 0-2.638-1.023-2.314-2.786l.687-3.809c.014-.067.067-.135.161-.135h.794c.095 0 .148.067.121.161l-.687 3.876c-.242 1.279.444 1.723 1.413 1.723.606 0 1.212-.175 1.615-.417l.928-5.208z" fill="#FFF"/><image overflow="visible" opacity=".46" width="68" height="27" xlink:href="EF75B526.html" transform="translate(191.045 198.045)"/><path fill="#FFF" d="M208.093 217.621a.67.67 0 01-.2.49.658.658 0 01-.483.2.655.655 0 01-.486-.2.675.675 0 01-.197-.49v-3.74c0-.21-.041-.41-.122-.598a1.576 1.576 0 00-.828-.834 1.523 1.523 0 00-.615-.125c-.215 0-.416.042-.605.125a1.65 1.65 0 00-.496.335 1.544 1.544 0 00-.457 1.098v3.74a.67.67 0 01-.2.49.658.658 0 01-.483.2.67.67 0 01-.49-.2.665.665 0 01-.2-.49v-3.74c0-.215-.042-.416-.125-.605a1.611 1.611 0 00-.335-.493 1.611 1.611 0 00-.493-.335 1.483 1.483 0 00-.605-.125 1.5 1.5 0 00-.605.122 1.58 1.58 0 00-.831.831c-.081.188-.122.39-.122.605v3.74a.67.67 0 01-.2.49.658.658 0 01-.483.2.67.67 0 01-.49-.2.665.665 0 01-.2-.49v-5.987c0-.188.067-.349.2-.483a.658.658 0 01.483-.2.68.68 0 01.407.128.644.644 0 01.243.338 2.824 2.824 0 011.597-.467c.438 0 .85.087 1.236.26.385.173.723.435 1.012.785.609-.697 1.356-1.045 2.241-1.045.399 0 .777.078 1.134.233.357.156.668.366.933.631s.475.576.631.933c.155.357.233.735.233 1.134v3.739zm6.925.69a.648.648 0 01-.486-.197.686.686 0 01-.197-.48 3.033 3.033 0 01-.96.516 3.61 3.61 0 01-1.098.161c-.469 0-.911-.091-1.328-.273a3.524 3.524 0 01-1.091-.739 3.507 3.507 0 01-.739-1.091 3.278 3.278 0 01-.273-1.328v-3.247c0-.188.067-.349.2-.483a.665.665 0 01.49-.2c.188 0 .349.067.483.2.134.134.2.295.2.483v3.247a2.064 2.064 0 001.255 1.896c.25.107.517.161.802.161a2.06 2.06 0 001.452-.605c.188-.188.336-.406.444-.654a1.99 1.99 0 00.161-.798v-3.247c0-.188.067-.349.2-.483a.665.665 0 01.49-.2c.188 0 .349.067.483.2.134.134.2.295.2.483v5.994a.662.662 0 01-.2.483.659.659 0 01-.488.201zm2.744-3.494c-.412-.158-.701-.32-.868-.486h.007a1.639 1.639 0 01-.5-1.19c0-.333.089-.634.266-.904.177-.27.408-.498.693-.687.285-.188.606-.334.963-.437a3.859 3.859 0 011.075-.154c1.095 0 2.035.44 2.819 1.321a.638.638 0 01.138.414.665.665 0 01-.684.684.553.553 0 01-.358-.118 3.424 3.424 0 01-.286-.256 2.218 2.218 0 00-1.63-.67c-.631 0-1.135.193-1.512.578a.39.39 0 00-.105.289c0 .123.057.206.171.25l3.076 1.012c.429.167.719.329.868.486h-.007c.333.337.5.734.5 1.189 0 .337-.089.64-.266.907a2.478 2.478 0 01-.693.687 3.363 3.363 0 01-.96.437 3.896 3.896 0 01-1.071.151c-1.104 0-2.044-.436-2.819-1.308a.69.69 0 01-.145-.427.664.664 0 01.684-.684c.145 0 .267.043.368.128.101.086.193.168.276.247.447.447.992.67 1.636.67.627 0 1.13-.197 1.512-.591a.392.392 0 00.099-.269c0-.123-.059-.208-.177-.256l-3.07-1.013zm6.834-5.166a.78.78 0 01-.237.572c-.158.158-.348.237-.572.237s-.414-.079-.572-.237a.778.778 0 01-.237-.572.78.78 0 01.237-.572c.158-.158.348-.237.572-.237s.414.079.572.237a.778.778 0 01.237.572zm-1.492 7.979v-5.981a.67.67 0 01.2-.49.658.658 0 01.483-.2c.188 0 .349.067.483.2a.688.688 0 01.207.49v5.981a.688.688 0 01-.207.49.658.658 0 01-.483.2.662.662 0 01-.483-.2.667.667 0 01-.2-.49zm7.705-1.394a.665.665 0 01.684.684.69.69 0 01-.217.506 3.52 3.52 0 01-2.399.894 3.545 3.545 0 01-2.603-1.078c-.719-.719-1.078-1.586-1.078-2.603s.359-1.884 1.078-2.603a3.55 3.55 0 012.603-1.078c.924 0 1.724.298 2.399.894.158.14.237.313.237.519a.677.677 0 01-.194.493.655.655 0 01-.49.197.698.698 0 01-.447-.158 2.52 2.52 0 00-.703-.427 2.182 2.182 0 00-.802-.145c-.32 0-.62.06-.9.181a2.36 2.36 0 00-.736.493 2.283 2.283 0 00-.677 1.633 2.294 2.294 0 001.413 2.126c.28.121.58.181.9.181.289 0 .556-.047.802-.141a2.38 2.38 0 00.697-.424.742.742 0 01.433-.144zm11.153-8.247a.69.69 0 00-.189-.496l-.893-.935-1.442-1.508a.693.693 0 00-.488-.211.662.662 0 00-.488.189.658.658 0 00-.21.479.662.662 0 00.193.492l1.442 1.508.893.935a.665.665 0 00.483.215.66.66 0 00.488-.189.66.66 0 00.211-.479z"/><path fill="#FFF" d="M239.438 205.049a.706.706 0 00-.513-.211.679.679 0 00-.488.215.663.663 0 00-.194.489v6.215a3.561 3.561 0 00-2.307-.808 3.543 3.543 0 00-2.602 1.078 3.544 3.544 0 00-1.078 2.603c0 1.016.359 1.884 1.078 2.602a3.543 3.543 0 002.602 1.078c1.008 0 1.875-.359 2.603-1.078.719-.709 1.078-1.577 1.078-2.602v-9.087c0-.197-.045-.365-.179-.494zm7.96 8.177a3.614 3.614 0 00-.805-1.19c-.727-.718-1.595-1.078-2.603-1.078a3.545 3.545 0 00-2.603 1.078c-.719.719-1.078 1.586-1.078 2.603s.359 1.884 1.078 2.603a3.544 3.544 0 002.603 1.078c1.008 0 1.875-.359 2.603-1.078.718-.71 1.078-1.577 1.078-2.603a3.807 3.807 0 00-.273-1.413zm4.822 3.912a.646.646 0 00-.48-.201c-.876 0-1.314-.436-1.314-1.308v-3.306h.822a.649.649 0 00.48-.201.675.675 0 00.197-.49.667.667 0 00-.197-.483.646.646 0 00-.48-.2h-.822v-2.471a.662.662 0 00-.2-.483.658.658 0 00-.483-.2.67.67 0 00-.49.2.659.659 0 00-.201.483v2.471h-.825a.652.652 0 00-.48.2.663.663 0 00-.197.483c0 .193.066.356.197.49a.647.647 0 00.48.201h.824v3.306c0 1.788.896 2.681 2.688 2.681a.652.652 0 00.48-.2.675.675 0 00.197-.49.654.654 0 00-.196-.482z"/><image overflow="visible" opacity=".6" width="235" height="74" xlink:href="EF75B527.html" transform="translate(31.045 77.045)"/><path d="M100.526 104.037l3.315 36.616-3.315 3.315h-9.873v-39.932a7.298 7.298 0 00-14.596 0l3.315 36.616-3.315 3.315h-9.873v-39.932a7.298 7.298 0 00-14.596 0l3.315 36.616-3.315 3.315h-9.873V96.845H37v-9.873l3.315-3.315c2.668-.002 6.837 4.42 8.659 6.368A17.141 17.141 0 0171.122 92a17.118 17.118 0 0112.233-5.135c9.48.012 17.161 7.693 17.171 17.172zm50.188 36.615l-2.553 2.565c-5.502.889-8.692-1.001-10.44-3.076-5.508 3.864-15.004 4.896-20.973 1.792a18.028 18.028 0 01-9.708-16.002V86.865l3.315-3.315 6.557 42.381a8.166 8.166 0 0016.33 0V86.865l3.315-3.315 6.557 50.545 7.6 6.557zm36.242-12.398c-.397 8.994-7.852 15.778-17.341 15.778-11.943 0-16.051-8.385-17.025-10.955l3.315-3.315c.773 2.037 8.808 4.215 13.71 4.215 4.07 0 7.137-2.593 7.295-6.166.057-1.289.23-5.211-8.924-8.352-13.446-4.612-15.963-12.501-15.706-18.306.397-8.995 7.852-15.778 17.341-15.778 10.665 0 20.34 7.64 20.34 7.64l-3.315 3.315-9.402 3.565c-.773-2.037-2.723-4.465-7.623-4.465-4.07 0-7.137 2.594-7.295 6.167-.057 1.289-.231 5.21 8.923 8.351 13.448 4.613 15.963 12.501 15.707 18.306zm20.685-31.297v37.25l7.597 6.556-3.315 3.315h-18.435v-9.872l3.315-3.315.965 3.315v-37.25h-4.281v-9.872l3.315-3.315.965 3.207h9.873v.109h4.282v9.872h-4.281zm38.929 27.972l3.315-3.315c16.955 4.42 3.468 21.914-12.431 22.304-10.483.257-18.988-8.502-18.988-18.988v-19.127c0-10.487 8.501-18.988 18.988-18.988 9.577 0 22.304 15.673 22.304 15.673l-3.315 3.315h-9.873a9.116 9.116 0 10-18.231 0v19.127a9.126 9.126 0 009.116 9.115 9.127 9.127 0 009.115-9.116z" fill="#990840"/><image overflow="visible" opacity=".6" width="47" height="64" xlink:href="EF75B520.html" transform="translate(36.045 145.045)"/><path fill="#990840" d="M76.402 170.107v17.245c-.01 8.488-6.888 15.366-15.375 15.375h-15.3v-39.699H42.12v-8.298l3.681-3.681 15.227 3.681c8.487.01 15.365 6.89 15.374 15.377zm-8.298-.002a7.084 7.084 0 00-7.076-7.076h-7.002v31.401h7.002a7.085 7.085 0 007.077-7.077v-17.248z"/><image overflow="visible" opacity=".6" width="45" height="61" xlink:href="EF75B521.html" transform="translate(75.045 148.045)"/><path fill="#990840" d="M113.15 170.617v16.077c0 8.814-7.146 15.96-15.96 15.96s-15.96-7.145-15.96-15.96v-16.077c.01-8.811 7.15-15.95 15.96-15.96 8.811.01 15.951 7.149 15.96 15.96zm-8.298 0a7.662 7.662 0 10-15.323 0v16.077c0 4.231 3.43 7.661 7.662 7.661s7.661-3.43 7.661-7.661v-16.077z"/><image overflow="visible" opacity=".6" width="44" height="65" xlink:href="EF75B51A.html" transform="translate(110.045 144.045)"/><path fill="#990840" d="M147.995 159.272l-3.681 3.681h-9.724l3.681 36.019-3.681 3.681h-8.298v-39.7h-9.725v-8.298l3.681-3.681 27.747 8.298z"/><image overflow="visible" opacity=".6" width="46" height="61" xlink:href="EF75B51B.html" transform="translate(141.045 148.045)"/><path fill="#990840" d="M155.851 168.805a5.776 5.776 0 005.775 5.776l19.028 4.618-3.681 3.681h-15.346a13.99 13.99 0 01-5.775-1.241v7.016a5.783 5.783 0 005.775 5.776l19.028 4.617-3.681 3.681h-15.346c-7.77-.009-14.065-6.304-14.073-14.074v-19.85c.009-7.77 6.304-14.065 14.073-14.074l19.028 4.617-3.681 3.681h-15.346a5.776 5.776 0 00-5.778 5.776z"/><image overflow="visible" opacity=".6" width="48" height="65" xlink:href="EF75B51C.html" transform="translate(177.045 144.045)"/><path fill="#990840" d="M211.023 178.636a14.024 14.024 0 014.097 9.913l3.681 10.425-3.681 3.681h-8.298v-14.103a5.775 5.775 0 00-5.559-5.763h-5.975l3.681 16.185-3.681 3.681h-8.298v-39.698h-3.604v-8.298l3.681-3.681 13.988 3.681c7.765.008 14.058 6.301 14.066 14.065a14.017 14.017 0 01-4.098 9.912zm-9.968-4.152c.07 0 .139.001.208.004a5.767 5.767 0 00-.208-11.531h-5.767v11.53h5.767v-.003z"/><image overflow="visible" opacity=".6" width="46" height="62" xlink:href="EF75B51D.html" transform="translate(214.045 147.045)"/><path fill="#990840" d="M249.806 189.466c-.334 7.56-6.6 13.262-14.576 13.262-10.039 0-13.492-7.048-14.31-9.208l3.681-3.681c.649 1.712 6.51 4.437 10.63 4.437 3.42 0 5.999-2.179 6.131-5.183.048-1.083.194-4.38-7.501-7.02-11.302-3.877-13.418-10.508-13.202-15.387.334-7.561 6.601-13.262 14.576-13.262 8.504 0 17.991 5.527 17.991 5.527s2.028-2.243-3.346 3.693l-8.238 2.984c-.65-1.712-2.289-3.752-6.408-3.752-3.421 0-5.999 2.18-6.132 5.183-.048 1.084-.194 4.38 7.501 7.019 11.304 3.878 13.418 10.509 13.203 15.388z"/><path d="M103.841 100.722l3.242 36.409-3.242 3.523h-9.873v-39.932a7.298 7.298 0 00-14.596 0l3.242 36.409-3.242 3.523H69.5v-39.932a7.298 7.298 0 00-14.596 0l3.242 36.409-3.242 3.523h-9.873V93.529h-4.717v-9.873l3.242-3.523c2.668-.002 6.91 4.627 8.732 6.576a17.141 17.141 0 0122.148 1.975 17.118 17.118 0 0112.233-5.135c9.481.012 17.163 7.694 17.172 17.173zm50.116 36.408l-3.242 3.523h-4.937a9.199 9.199 0 01-7.037-3.269 18.028 18.028 0 01-28.385-14.767V83.55l3.242-3.523 6.63 42.588a8.166 8.166 0 0016.33 0V83.55l3.242-3.523 6.63 50.752 7.527 6.351zm36.315-12.191c-.397 8.994-7.852 15.778-17.341 15.778-11.943 0-16.051-8.385-17.025-10.955l3.242-3.523c.773 2.037 8.882 4.422 13.783 4.422 4.07 0 7.137-2.593 7.295-6.166.057-1.289.23-5.211-8.924-8.352-13.446-4.612-15.963-12.501-15.706-18.306.397-8.995 7.852-15.778 17.341-15.778 7.695 0 20.266 7.433 20.266 7.433l-3.242 3.523-9.402 3.565c-.773-2.037-2.723-4.465-7.623-4.465-4.07 0-7.137 2.594-7.295 6.167-.057 1.289-.231 5.21 8.923 8.351 13.448 4.613 15.964 12.501 15.708 18.306zm20.684-31.297v37.25l7.524 6.349-3.242 3.523h-18.435v-9.872l3.242-3.523 1.038 3.523v-37.25h-4.281V83.77l3.242-3.523 4.154 3.545 6.757-.131v.109l7.524 6.349-3.242 3.523h-4.281zm38.929 27.971l3.242-3.523c17.043 1.453 5.587 21.6-12.358 22.511-10.473.532-18.988-8.502-18.988-18.988v-19.127c0-10.487 8.501-18.988 18.988-18.988 9.777 0 22.231 15.466 22.231 15.466s-.025.095-3.242 3.523h-9.873a9.116 9.116 0 10-18.231 0v19.127a9.126 9.126 0 009.116 9.115 9.126 9.126 0 009.115-9.116zM80.083 166.426v17.245c-.01 8.488-6.888 15.366-15.375 15.375h-15.3v-39.699h-3.607v-8.298l3.6-3.911 15.308 3.911c8.487.01 15.365 6.89 15.374 15.377zm-8.298-.002a7.084 7.084 0 00-7.076-7.076h-7.002v31.401h7.002a7.085 7.085 0 007.077-7.077v-17.248zm45.046.512v16.077c0 8.814-7.146 15.96-15.96 15.96s-15.96-7.145-15.96-15.96v-16.077c.01-8.811 7.15-15.95 15.96-15.96 8.811.01 15.951 7.149 15.96 15.96zm-8.298 0a7.662 7.662 0 10-15.323 0v16.077c0 4.231 3.43 7.661 7.662 7.661s7.661-3.43 7.661-7.661v-16.077zm43.062-11.575l-3.6 3.911h-9.724l3.6 35.789-3.6 3.911h-8.298v-39.7h-9.725v-8.298l3.6-3.911 27.747 8.298zm7.937 9.762a5.776 5.776 0 005.775 5.776l18.946 4.388-3.6 3.911h-15.346a13.99 13.99 0 01-5.775-1.241v7.016a5.783 5.783 0 005.775 5.776l18.818 4.154-3.471 4.144h-15.346c-7.77-.009-14.065-6.304-14.073-14.074v-19.85c.009-7.77 6.304-14.065 14.073-14.074h15.346l3.6 4.387-3.6 3.911h-15.346a5.777 5.777 0 00-5.776 5.776zm55.172 9.832a14.024 14.024 0 014.097 9.913l3.6 10.196-3.6 3.911h-8.298v-14.103a5.775 5.775 0 00-5.559-5.763h-5.975l3.6 15.955-3.6 3.911h-8.298v-39.698h-3.604v-8.298l3.6-3.911 14.069 3.911c7.765.008 14.058 6.301 14.066 14.065a14.016 14.016 0 01-4.098 9.911zm-9.968-4.152c.07 0 .139.001.208.004a5.767 5.767 0 00-.208-11.531h-5.767v11.53h5.767v-.003zm48.751 14.982c-.334 7.56-6.6 13.262-14.576 13.262-10.039 0-13.492-7.048-14.31-9.208l3.6-3.911c.649 1.712 6.591 4.667 10.711 4.667 3.42 0 5.999-2.179 6.131-5.183.048-1.083.194-4.38-7.501-7.02-11.302-3.877-13.418-10.508-13.202-15.387.334-7.561 6.601-13.262 14.576-13.262 8.678 0 17.909 5.297 17.909 5.297l-3.6 3.911-7.902 2.996c-.65-1.712-2.289-3.752-6.408-3.752-3.421 0-5.999 2.18-6.132 5.183-.048 1.084-.194 4.38 7.501 7.019 11.304 3.878 13.418 10.509 13.203 15.388z" fill="#F90053"/><path d="M107.084 97.199v39.932h-9.873V97.199a7.298 7.298 0 00-14.596 0v39.932h-9.873V97.199a7.298 7.298 0 00-14.596 0v39.932h-9.873V90.007h-4.717v-9.873h4.936a9.628 9.628 0 017.038 3.053 17.141 17.141 0 0122.148 1.975 17.118 17.118 0 0112.233-5.135c9.481.012 17.163 7.693 17.173 17.172zm46.873 30.058v9.873h-4.937a9.199 9.199 0 01-7.037-3.269 18.028 18.028 0 01-28.385-14.767V80.027h9.873v39.066a8.166 8.166 0 0016.33 0V80.027h9.873v47.23h4.283zm39.557-5.841c-.397 8.994-7.852 15.778-17.341 15.778-11.943 0-16.051-8.385-17.025-10.955l9.402-3.565c.773 2.037 2.722 4.464 7.623 4.464 4.07 0 7.137-2.593 7.295-6.166.057-1.289.23-5.211-8.924-8.352-13.446-4.612-15.963-12.501-15.706-18.306.397-8.995 7.852-15.778 17.341-15.778 11.943 0 16.05 8.385 17.024 10.955l-9.402 3.565c-.773-2.037-2.723-4.465-7.623-4.465-4.07 0-7.137 2.594-7.295 6.167-.057 1.289-.231 5.21 8.923 8.351 13.448 4.614 15.964 12.502 15.708 18.307zm20.685-31.297v37.25h4.282v9.872h-18.435v-9.872h4.281v-37.25h-4.281v-9.872h18.436v9.872h-4.283zm38.928 27.972H263c0 10.486-8.501 18.988-18.988 18.988-10.486 0-18.988-8.502-18.988-18.988V98.963c0-10.487 8.501-18.988 18.988-18.988S263 88.476 263 98.963h-9.873a9.116 9.116 0 10-18.231 0v19.127a9.126 9.126 0 009.116 9.115 9.123 9.123 0 009.115-9.114zM83.683 162.515v17.245c-.01 8.488-6.888 15.366-15.375 15.375h-15.3v-39.699H49.4v-8.298h18.908c8.488.01 15.366 6.89 15.375 15.377zm-8.298-.002a7.084 7.084 0 00-7.076-7.076h-7.002v31.401h7.002a7.085 7.085 0 007.077-7.077v-17.248zm45.046.512v16.077c0 8.814-7.146 15.96-15.96 15.96s-15.96-7.146-15.96-15.96v-16.077c.01-8.811 7.15-15.95 15.96-15.96 8.81.01 15.951 7.149 15.96 15.96zm-8.298 0a7.662 7.662 0 10-15.323 0v16.077a7.661 7.661 0 007.662 7.661 7.66 7.66 0 007.661-7.661v-16.077zm39.462-15.962v8.298h-9.724v39.7h-8.298v-39.7h-9.725v-8.298h27.747zm11.537 14.149a5.776 5.776 0 005.775 5.776h15.346v8.299h-15.346a13.99 13.99 0 01-5.775-1.241v7.016a5.783 5.783 0 005.775 5.776h15.346v8.298h-15.346c-7.77-.009-14.065-6.304-14.073-14.074v-19.85c.009-7.77 6.304-14.065 14.073-14.074h15.346v8.298h-15.346a5.777 5.777 0 00-5.775 5.776zm55.172 9.832a14.024 14.024 0 014.097 9.913v14.106h-8.298V180.96a5.775 5.775 0 00-5.559-5.763h-5.975v19.866h-8.298v-39.698h-3.604v-8.298h17.669c7.765.008 14.058 6.301 14.066 14.065a14.017 14.017 0 01-4.098 9.912zm-9.968-4.152c.07 0 .139.001.208.004a5.767 5.767 0 00-.208-11.531h-5.767v11.53h5.767v-.003zm48.75 14.982c-.334 7.56-6.6 13.262-14.576 13.262-10.039 0-13.492-7.048-14.31-9.208l7.903-2.996c.649 1.712 2.288 3.752 6.408 3.752 3.42 0 5.999-2.179 6.131-5.183.048-1.083.194-4.38-7.501-7.02-11.302-3.877-13.418-10.508-13.202-15.387.334-7.561 6.601-13.262 14.576-13.262 10.039 0 13.491 7.048 14.31 9.208l-7.902 2.996c-.65-1.712-2.289-3.752-6.408-3.752-3.421 0-5.999 2.18-6.132 5.183-.048 1.084-.194 4.38 7.501 7.019 11.303 3.878 13.418 10.509 13.202 15.388z" fill="#F9CD80"/></svg>