<svg xmlns="http://www.w3.org/2000/svg" xmlns:xlink="http://www.w3.org/1999/xlink" width="19" height="19" version="1.1" id="svg23"><defs id="defs10"><mask id="mask-2" maskContentUnits="userSpaceOnUse" maskUnits="objectBoundingBox" x="0" y="0" width="3" height="2" fill="#fff"><use xlink:href="#path-1" id="use7"/></mask><mask id="mask-2-2" maskContentUnits="userSpaceOnUse" maskUnits="objectBoundingBox" x="0" y="0" width="3" height="2" fill="#fff"><use xlink:href="#path-1" id="use7-9"/></mask><mask id="mask-2-2-6" maskContentUnits="userSpaceOnUse" maskUnits="objectBoundingBox" x="0" y="0" width="3" height="2" fill="#fff"><use xlink:href="#path-1" id="use7-9-2"/></mask><mask id="mask-2-2-7" maskContentUnits="userSpaceOnUse" maskUnits="objectBoundingBox" x="0" y="0" width="3" height="2" fill="#fff"><use xlink:href="#path-1" id="use7-9-5"/></mask><mask id="mask-2-2-2" maskContentUnits="userSpaceOnUse" maskUnits="objectBoundingBox" x="0" y="0" width="3" height="2" fill="#fff"><use xlink:href="#path-1" id="use7-9-9"/></mask><mask id="mask-2-2-61" maskContentUnits="userSpaceOnUse" maskUnits="objectBoundingBox" x="0" y="0" width="3" height="2" fill="#fff"><use xlink:href="#path-1" id="use7-9-0"/></mask><meshgradient id="meshgradient161-3" gradientUnits="userSpaceOnUse" x="7" y="3"><meshrow id="meshrow175-6"><meshpatch id="meshpatch177-7"><stop path="c 1,0 2,0 3,0" id="stop179-5" stop-color="#fff" stop-opacity="1"/><stop path="c 0,0.666667 0,1.33333 0,2" id="stop181-3" stop-color="#a3aaaf" stop-opacity="1"/><stop path="c -1,0 -1.9371,1.89125 -3,0" id="stop183-5" stop-color="#fff" stop-opacity="1"/><stop path="c 0,-0.666667 0,-1.33333 0,-2" id="stop185-6" stop-color="#a3aaaf" stop-opacity="1"/></meshpatch></meshrow></meshgradient><path id="path-1" d="M7 3h3v2H7z"/></defs><g id="Page-1" stroke="none" stroke-width="1" fill="none" fill-rule="evenodd"><g id="Exercício---Resposta-aberta" transform="translate(-1198 -2675)" stroke-width="2" stroke="#A3AAAF"><g id="Group" transform="translate(1199 2676)"><path id="Oval" transform="translate(-1 -1)" d="M9.387 1A8.5 8.5 0 001 9.5 8.5 8.5 0 109.387 1z"/><g id="g715" transform="translate(.086)" fill-opacity="1"><use id="Rectangle" mask="url(#mask-2)" fill="url(#meshgradient161)" xlink:href="#path-1" x="0" y="0" width="100%" height="100%" transform="matrix(.92833 0 0 5.36577 .617 -10.689)"/><use id="Rectangle-1" mask="url(#mask-2-2)" fill="url(#meshgradient161-3)" xlink:href="#path-1" x="0" y="0" width="100%" height="100%" transform="matrix(.6401 .66335 -2.5777 2.50553 11.735 -9.257)"/><use id="Rectangle-1-6" mask="url(#mask-2-2-61)" fill="url(#meshgradient161-3-4)" xlink:href="#path-1" x="0" y="0" width="100%" height="100%" transform="matrix(-.6401 .66335 2.5777 2.50553 5.25 -9.277)"/></g></g></g></g></svg>