<svg width="24" height="25" viewBox="0 0 24 25" xmlns="http://www.w3.org/2000/svg" xmlns:xlink="http://www.w3.org/1999/xlink"><title>Group 58</title><defs><path id="a" d="M0 .065h1.264v1.264H0z"/></defs><g fill="none" fill-rule="evenodd"><path d="M7.5 16.234c.03.021.07.051.11.07a.18.18 0 0 1-.07-.09l-.04.02zm.58.23c-.15-.03-.28-.059-.38-.11.14.08.29.16.45.24.21.101.42.191.63.271l.12-.03.23-.06c-.09-.15-.63-.21-1.05-.31zm7.399-.299c-.05-.02-.1-.02-.14-.02h-1.19c-.73.24-1.5.36-2.31.36-.8 0-1.58-.12-2.3-.36H7.83c-.05 0-.11.01-.17.03l-.08.02c.16.1.33.19.5.27.27.14.54.26.82.37.17.06.34.12.51.17h4.87c.56-.17 1.1-.4 1.61-.68l-.41-.16z" fill="#747C82"/><path d="M16.44 15.984l-.5-.18-.02-.009-.25-.1h-.01c-.13-.05-.24-.05-.31-.05h-1.2l-.16.02a6.943 6.943 0 0 1-4.3 0l-1.35-.02h-.43l-.04-.13-.35.14-.48.2-.08.03c.06.04.12.08.19.13.11.07.23.15.35.22.03.02.07.05.11.07.02.01.05.03.09.05.14.08.29.16.45.24a8.541 8.541 0 0 0 3.69.83 8.54 8.54 0 0 0 4.69-1.4l-.09-.04z" fill="#747C82"/><path d="M16.825 14.623a3.49 3.49 0 0 1-.423.347 7.133 7.133 0 0 1-2.257 1.172c-.72.24-1.5.365-2.306.365a7.278 7.278 0 0 1-2.296-.365 7.028 7.028 0 0 1-2.123-1.077c-.154-.105-.298-.202-.433-.327a3.95 3.95 0 0 1-.432-.384 7.604 7.604 0 0 1-2.277-5.428c0-4.17 3.39-7.561 7.56-7.561s7.572 3.39 7.572 7.56a7.52 7.52 0 0 1-2.152 5.285 5.868 5.868 0 0 1-.433.413M11.839.933c-4.42 0-7.993 3.583-7.993 8.003a7.985 7.985 0 0 0 2.709 5.995c.134.125.278.24.432.355.144.115.288.212.442.317a7.933 7.933 0 0 0 4.41 1.326 7.93 7.93 0 0 0 3.468-.787 8.826 8.826 0 0 0 1.095-.635c.145-.106.289-.211.423-.317.154-.125.298-.25.433-.375a7.977 7.977 0 0 0 2.585-5.88A8.004 8.004 0 0 0 11.839.934" fill="#747C82"/><path d="M13.99 15.665c-1.351.45-2.92.46-4.3 0a6.77 6.77 0 0 1-2.011-1.03 2.31 2.31 0 0 1-.39-.3c-.14-.101-.26-.22-.38-.34a7.032 7.032 0 0 1-2.13-5.07c0-3.89 3.17-7.06 7.06-7.06 3.9 0 7.07 3.17 7.07 7.06 0 1.86-.71 3.61-2.02 4.94-.12.14-.25.26-.39.38l-.02.01c-.11.11-.23.22-.38.32a6.83 6.83 0 0 1-2.11 1.09m6.31-7.53a8.5 8.5 0 0 0-.32-1.67 8.475 8.475 0 0 0-2.07-3.48c-.33-.34-.69-.65-1.07-.91a8.345 8.345 0 0 0-5-1.64c-4.68 0-8.49 3.81-8.49 8.5a8.53 8.53 0 0 0 2.86 6.36c.15.14.31.269.46.38.09.07.18.139.29.21.06.04.12.08.19.13.11.07.23.15.35.219.03.02.07.05.11.07.02.01.05.03.09.05.14.08.29.16.45.24a8.522 8.522 0 0 0 3.69.83 8.539 8.539 0 0 0 4.69-1.4c.05-.03.11-.07.17-.11.15-.11.3-.22.44-.34.16-.13.32-.26.46-.39a8.545 8.545 0 0 0 2.74-6.25c0-.27-.01-.54-.04-.8" fill="#747C82"/><path d="M11.839 16.507a7.278 7.278 0 0 1-2.296-.365 7.014 7.014 0 0 1-2.123-1.076c-.154-.106-.298-.203-.433-.328a4.047 4.047 0 0 1-.432-.383 7.609 7.609 0 0 1-2.278-5.43c0-4.168 3.392-7.56 7.562-7.56 4.169 0 7.571 3.392 7.571 7.56 0 2.057-.817 3.92-2.153 5.285a5.472 5.472 0 0 1-.432.413 3.49 3.49 0 0 1-.423.347 7.133 7.133 0 0 1-2.257 1.172 7.299 7.299 0 0 1-2.306.365m0-16.007C7.198.5 3.413 4.286 3.413 8.926a8.41 8.41 0 0 0 3.613 6.918c.163.115.336.22.499.326l.058.029a8.367 8.367 0 0 0 1.825.807 8.539 8.539 0 0 0 4.871 0 8.79 8.79 0 0 0 1.614-.682c.145-.087.288-.172.433-.27.163-.085.336-.2.48-.325a5.34 5.34 0 0 0 .451-.346v-.01a8.388 8.388 0 0 0 3.007-6.447c0-4.64-3.775-8.426-8.425-8.426" fill="#747C82"/><path d="M11.839 16.507a7.278 7.278 0 0 1-2.296-.365 7.014 7.014 0 0 1-2.123-1.076c-.154-.106-.298-.203-.433-.328a4.047 4.047 0 0 1-.432-.383 7.609 7.609 0 0 1-2.278-5.43c0-4.168 3.392-7.56 7.562-7.56 4.169 0 7.571 3.392 7.571 7.56 0 2.057-.817 3.92-2.153 5.285a5.472 5.472 0 0 1-.432.413 3.49 3.49 0 0 1-.423.347 7.133 7.133 0 0 1-2.257 1.172 7.299 7.299 0 0 1-2.306.365zm0-16.007C7.198.5 3.413 4.286 3.413 8.926a8.41 8.41 0 0 0 3.613 6.918c.163.115.336.22.499.326l.058.029a8.367 8.367 0 0 0 1.825.807 8.539 8.539 0 0 0 4.871 0 8.79 8.79 0 0 0 1.614-.682c.145-.087.288-.172.433-.27.163-.085.336-.2.48-.325a5.34 5.34 0 0 0 .451-.346v-.01a8.388 8.388 0 0 0 3.007-6.447c0-4.64-3.775-8.426-8.425-8.426z" stroke="#747C82"/><path d="M11.875 6.652A2.237 2.237 0 0 0 9.64 8.887c0 .894.527 1.697 1.343 2.047a2.216 2.216 0 0 0 1.774.007 2.237 2.237 0 0 0-.882-4.289m0 6.27a3.903 3.903 0 0 1-1.616-.34A4.013 4.013 0 0 1 7.84 8.887a4.04 4.04 0 0 1 4.035-4.035 4.04 4.04 0 0 1 4.036 4.035 4.024 4.024 0 0 1-2.427 3.7 3.89 3.89 0 0 1-1.609.335M17.638 8.944a.415.415 0 1 1-.83 0 .415.415 0 0 1 .83 0" fill="#747C82"/><path d="M17.224 8.829a.116.116 0 0 0-.116.115c0 .125.23.13.23 0a.115.115 0 0 0-.114-.115m0 .83a.716.716 0 0 1-.716-.715.715.715 0 1 1 .716.715M6.868 9.116a.415.415 0 1 1-.83 0 .415.415 0 0 1 .83 0" fill="#747C82"/><path d="M6.453 9a.116.116 0 0 0-.115.116c0 .127.23.127.23 0A.116.116 0 0 0 6.453 9m0 .83a.716.716 0 0 1 0-1.43.716.716 0 0 1 0 1.43M16.212 12.683a.415.415 0 1 1-.83 0 .415.415 0 0 1 .83 0" fill="#747C82"/><path d="M15.797 12.569a.116.116 0 0 0-.115.115c0 .126.23.128.23 0a.115.115 0 0 0-.115-.115m0 .83a.715.715 0 1 1 .001-1.431.715.715 0 0 1 0 1.43M8.316 5.46a.415.415 0 1 1-.83 0 .415.415 0 0 1 .83 0" fill="#747C82"/><path d="M7.9 5.346a.116.116 0 0 0-.115.114c0 .128.23.128.23 0a.116.116 0 0 0-.115-.114m0 .83a.716.716 0 0 1 0-1.43.716.716 0 0 1 0 1.43M16.314 5.465a.415.415 0 1 1-.83 0 .415.415 0 0 1 .83 0" fill="#747C82"/><path d="M15.9 5.35a.116.116 0 0 0-.116.115c0 .127.23.127.23 0a.116.116 0 0 0-.115-.115m0 .83a.715.715 0 1 1 .001-1.431.715.715 0 0 1 0 1.43M8.478 12.865a.415.415 0 1 1-.83 0 .415.415 0 0 1 .83 0" fill="#747C82"/><path d="M8.063 12.75a.117.117 0 0 0-.116.115c.001.127.231.128.231 0a.116.116 0 0 0-.115-.115m0 .83a.715.715 0 1 1 .001-1.431.715.715 0 0 1 0 1.43M12.517 14.613a.415.415 0 1 1-.83 0 .415.415 0 0 1 .83 0" fill="#747C82"/><path d="M12.103 14.498a.117.117 0 0 0-.116.115c0 .127.232.128.23 0a.116.116 0 0 0-.114-.115m0 .83a.715.715 0 1 1 0-1.43.715.715 0 0 1 0 1.43M12.517 3.638a.416.416 0 0 1-.415.415.416.416 0 0 1 0-.83c.23 0 .415.186.415.415" fill="#747C82"/><path d="M12.103 3.523a.117.117 0 0 0-.116.115c0 .126.232.128.23 0a.116.116 0 0 0-.114-.115m0 .83a.715.715 0 1 1 0-1.431.715.715 0 0 1 0 1.43M8.87 17.354c.13.051.26.091.4.13l5.01.02.14-.02 1.62.35 3.6 1.35c-1.72 2.05-4.161 3.36-6.791 3.62v-1.99h1.47c.5 0 .9-.399.9-.899s-.4-.9-.9-.9H9.58c-.5 0-.9.4-.9.9s.4.9.9.9h1.47v2c-2.66-.21-5.16-1.51-6.92-3.57l3.19-1.43.3-.14 1.25-.32zM22 18.464a.912.912 0 0 0-.56-.589l-4.91-1.85a8.539 8.539 0 0 1-4.69 1.4 8.537 8.537 0 0 1-3.69-.83c-.16-.08-.31-.16-.45-.24-.04-.02-.07-.04-.09-.05-.04-.02-.08-.05-.11-.07-.12-.07-.24-.15-.35-.22-.07-.05-.13-.09-.19-.13l-.453.262-.007-.003-4.22 1.88c-.24.12-.41.33-.5.62-.05.25-.02.511.12.75 2.28 3.33 6 5.33 9.96 5.33 4.02 0 7.77-2.04 10.04-5.47.14-.23.18-.53.1-.79zM2.458 4.435a.74.74 0 1 1-1.47.179.74.74 0 0 1 1.47-.18M4.84 1.69a1.32 1.32 0 1 1-2.62.319 1.32 1.32 0 0 1 2.62-.318" fill="#747C82"/><g transform="translate(0 1.725)"><mask id="b" fill="#fff"><use xlink:href="#a"/></mask><path d="M1.26.62A.632.632 0 1 1 .003.773.632.632 0 0 1 1.259.62" fill="#747C82" mask="url(#b)"/></g><path d="M20.459 8.341L19.39 6.893l2.31-1.705-2.468-3.234-1.576 1.216-1.066-1.45L18.255.497c.376-.277.84-.386 1.303-.306.452.077.852.324 1.127.697l2.435 3.314c.572.78.414 1.872-.351 2.435l-2.31 1.704z" fill="#747C82"/></g></svg>