<svg id="Layer_1" xmlns="http://www.w3.org/2000/svg" viewBox="0 0 25 25"><style>.st0{fill:#747c82}</style><path class="st0" d="M24.8 12.1l-4.1 7.2c-.5.8-1.4 1.3-2.3 1.3h-.5l-3 3.4c-.2.2-.6.1-.6-.2l.2-3.2H4.8c-.6 0-1-.5-1-1 0-.6.4-1 1-1h13.5c.2 0 .4-.1.6-.3l4.1-7.2c.3-.5.9-.6 1.4-.4.5.3.6.9.4 1.4zM15.8 12.8H1.2c-.4 0-.7-.2-.9-.5s-.2-.7 0-1L5.9 1c.1-.3.5-.5.9-.5l15.1.2c.4 0 .7.2.9.5.2.3.2.7 0 1l-6.1 10.1c-.3.3-.6.5-.9.5zm-12.9-2h12.3l4.9-8.2-12.8-.1-4.4 8.3z"/><path class="st0" d="M16.8 16.7H3.3c-.6 0-1-.4-1-1s.4-1 1-1h13.5c.2 0 .4-.1.5-.3l5.3-9c.3-.4.9-.6 1.4-.3.5.3.6.9.4 1.4l-5.3 9c-.5.7-1.4 1.2-2.3 1.2z"/></svg>