<svg xmlns="http://www.w3.org/2000/svg" viewBox="0 0 24 25"><path d="M6.3 21.5c-1.1-1.6-1.6-3.8-1.6-6.6v-4.7c0-2.9.5-5.2 1.6-6.7s3-2.3 5.7-2.3c2.4 0 4.2.7 5.2 2 1.1 1.3 1.6 3.2 1.6 5.8v1.2h-3.6v-1c0-1.2-.1-2.2-.2-2.9-.1-.7-.4-1.2-.9-1.6-.4-.4-1.1-.6-2.1-.6s-1.8.2-2.3.6c-.5.4-.8 1-1 1.8s-.3 1.8-.3 3.1v5.9c0 1.4.1 2.4.3 3.2.3.8.7 1.3 1.2 1.7.5.3 1.2.5 2.1.5 1 0 1.7-.2 2.1-.6.5-.4.8-1 .9-1.7.1-.7.2-1.7.2-3v-1.1h3.6v1.1c0 2.7-.5 4.7-1.5 6.2-1 1.4-2.8 2.1-5.3 2.1-2.7-.1-4.6-.9-5.7-2.4z" fill="none" stroke="#747c82" stroke-width="2" stroke-linejoin="round"/></svg>