<svg width="25" height="27" viewBox="0 0 27 27" fill="none" xmlns="http://www.w3.org/2000/svg" stroke="#747C81"><path d="M15.795 1h-4.552a2.274 2.274 0 0 0-2.276 2.273v15.909a2.274 2.274 0 0 0 2.276 2.273h4.552a2.274 2.274 0 0 0 2.276-2.273V3.272A2.274 2.274 0 0 0 15.795 1zM3.334 16.852A7.954 7.954 0 0 1 1 11.227a7.944 7.944 0 0 1 2.334-5.625M5.748 8.013a4.545 4.545 0 0 0-.986 4.954c.228.551.564 1.052.986 1.474M23.705 16.852a7.954 7.954 0 0 0 2.334-5.625 7.944 7.944 0 0 0-2.334-5.625M21.291 8.013a4.544 4.544 0 0 1 .987 4.954 4.543 4.543 0 0 1-.987 1.474M10.104 6.682h1.139M15.795 6.682h1.138M10.104 15.773h1.139M15.795 15.773h1.138M10.104 11.227h1.139M15.795 11.227h1.138M15.226 22.591v3.41M11.812 22.591v3.41" stroke-width="1.8" stroke-miterlimit="10" stroke-linecap="square"/></svg>