<svg width="22" height="22" fill="#747C81" stroke="#747C81" xmlns="http://www.w3.org/2000/svg"><path fill-rule="evenodd" clip-rule="evenodd" d="M4.06 13.268c1.42-.49 3.094-.601 4.44-.601 2.751 0 4.594.494 5.777 1.239C15.48 14.663 16 15.688 16 16.611v4.39H1v-4.454l.01-.064c.277-1.77 1.628-2.723 3.05-3.215zm-1.393 3.413v2.652h11.666v-2.722c0-.262-.146-.792-.944-1.295-.816-.514-2.307-.983-4.889-.983-1.292 0-2.743.112-3.894.51-1.122.388-1.78.974-1.94 1.838z" stroke-width=".3" stroke-linecap="square"/><path fill-rule="evenodd" clip-rule="evenodd" d="M11 6.833V5.167a2.5 2.5 0 0 0-5 0v1.666a2.5 2.5 0 1 0 5 0zM8.5 1a4.167 4.167 0 0 0-4.167 4.167v1.666a4.167 4.167 0 1 0 8.333 0V5.167A4.167 4.167 0 0 0 8.5 1z" stroke-width=".3"/><path fill-rule="evenodd" clip-rule="evenodd" d="M14.333 3.5H21v1.667h-6.667V3.5zM14.333 7.667H21v1.666h-6.667V7.667zM16.833 11.833H21V13.5h-4.167v-1.667z" stroke-width=".3" stroke-linecap="square" stroke-linejoin="round"/></svg>