<svg width="19" height="26" fill="#747C81" xmlns="http://www.w3.org/2000/svg"><path fill-rule="evenodd" clip-rule="evenodd" d="M6.35 7V5.574c.328-.177.597-.447.774-.774H9.95a5.1 5.1 0 0 1 5.1 5.1v8h-1.1a1 1 0 0 0-1 1v4a1 1 0 0 0 1 1h4a1 1 0 0 0 1-1v-4a1 1 0 0 0-1-1h-1.1v-8A6.9 6.9 0 0 0 9.95 3H7.124a1.909 1.909 0 0 0-.774-.774V0h-1.8v2.226A1.909 1.909 0 0 0 3.776 3H2.05v1.8h1.726c.177.327.447.597.774.774V7h-.6a3.9 3.9 0 0 0-3.9 3.9v13c0 1.05.85 1.9 1.9 1.9h7a1.9 1.9 0 0 0 1.9-1.9v-13A3.9 3.9 0 0 0 6.95 7h-.6Zm2.7 8v-4.1a2.1 2.1 0 0 0-2.1-2.1h-3a2.1 2.1 0 0 0-2.1 2.1V15h7.2Zm-7.2 1.8V19h7.2v-2.2h-7.2Zm7.2 4h-7.2v3.1a.1.1 0 0 0 .1.1h7a.1.1 0 0 0 .1-.1v-3.1Zm5.7 1.3v-2.4h2.4v2.4h-2.4Z"/></svg>