<svg width="26" height="27" fill="none" xmlns="http://www.w3.org/2000/svg"><path d="M12.305 13.98c-.405 2.637-2.885 4.53-5.935 4.53-3.688 0-6.37-2.682-6.37-6.393 0-.458.045-2.824 1.833-4.62.811-.811 1.653-1.18 2.043-1.352.91-.39 1.833-.548 7.4-.548h.315c.632.788 1.263 1.577 1.894 2.359-1.833-.008-4.35.03-7.047.18-.496.03-1.24.082-1.976.57-1.021.677-1.645 1.894-1.645 3.404 0 2.329 1.51 3.974 3.621 3.974 1.51 0 2.87-1.037 3.238-2.45l2.63.346z" fill="#747C81"/><path d="M15.798 13.162c.098 1.66 1.63 2.937 3.524 2.937 2.246 0 3.861-1.675 3.861-3.974 0-1.397-.57-2.554-1.51-3.253-.684-.51-1.39-.623-2.261-.721a37.85 37.85 0 00-5.927-.18c-.631-.79-1.262-1.578-1.893-2.36 1.404-.014 2.606-.007 3.545 0 2.059.016 3.095.053 3.621.076.894.037 1.338.06 1.495.075.594.083 2.802.398 4.357 2.291 1.27 1.548 1.39 3.35 1.39 4.072 0 3.703-2.764 6.393-6.61 6.393-4.027 0-6.694-3.02-6.304-7.197h6.408v1.848h-3.696v-.008zM21.403 5.439a8.814 8.814 0 00-.601-.188c-.136-.037-.24-.068-.376-.09-.376-.075-.676-.083-1.052-.09-.112 0-.263-.008-.45 0V0h2.479v5.439z" fill="#747C81"/><path d="M13.605 22.417c.037.188.233 1.112 1.134 1.652 0 0 .669.361 1.51.369.098 0 1.382-.046 2.224-1 .638-.728.683-1.592.698-1.953.008-.097 0-.105-.015-1.029-.007-.473-.015-.856-.015-1.112.316.03.699.038 1.142 0 .346-.03.654-.09.894-.15v2.284c-.007.375-.045 1.51-.766 2.606a4.626 4.626 0 01-1.645 1.503 5.344 5.344 0 01-2.72.661 5.29 5.29 0 01-1.57-.33 4.887 4.887 0 01-1.36-.797 4.926 4.926 0 01-1.141-1.352 4.38 4.38 0 01-.519-1.382c.714.007 1.435.022 2.149.03z" fill="#747C81" stroke="#747C81" stroke-width=".452" stroke-miterlimit="10"/><path d="M14.732 20.163H10.6c-.594 0-1.074.556-1.074 1.24v.232c0 .684.48 1.24 1.074 1.24h4.124c.594 0 1.074-.556 1.074-1.24v-.233c.008-.683-.473-1.239-1.066-1.239z" fill="#747C81"/></svg>