<svg xmlns="http://www.w3.org/2000/svg" width="25" height="23"><g fill="#747C82" fill-rule="evenodd"><path d="M20.3 7.7v2.499h-2.5V12.2h2.5V14.699h2V12.2h2.5v-2.001h-2.5V7.7z"/><path d="M0 0v22.4h22.3v-4.999h-2V20.4H2V2h18.3v2.9h2V0z"/><path d="M12.828 11.121a.424.424 0 0 1-.197.295 1.152 1.152 0 0 1-.295.138c-.196.067-.41.141-.64.227-.229.085-.443.16-.64.226-.236.078-.459.156-.669.237a1.808 1.808 0 0 0-.454.274c-.118.105-.226.24-.324.404a1.194 1.194 0 0 0-.148.621c0 .5.118.87.354 1.112.237.244.677.365 1.32.365.656 0 1.103-.128 1.34-.385.236-.256.353-.62.353-1.092v-2.422zm-1.693-5.219c1.155 0 2.002.227 2.54.68.538.453.808 1.021.808 1.703v5.829c0 .236-.043.496-.128.778a1.79 1.79 0 0 1-.502.777c-.25.238-.59.434-1.025.592-.433.156-.997.235-1.693.235-.696 0-1.26-.079-1.694-.235-.433-.158-.775-.354-1.024-.592a1.78 1.78 0 0 1-.502-.777 2.684 2.684 0 0 1-.128-.778v-.926c0-.499.128-.95.384-1.359a2.09 2.09 0 0 1 1.093-.865c.237-.08.505-.17.808-.277l.876-.305c.282-.098.528-.186.738-.265.21-.079.342-.125.394-.138a6.55 6.55 0 0 0 .207-.109.902.902 0 0 0 .247-.206c.078-.09.147-.197.206-.315a.915.915 0 0 0 .088-.414v-.374c0-.13-.026-.266-.078-.404a.995.995 0 0 0-.276-.383 1.448 1.448 0 0 0-.522-.286 2.622 2.622 0 0 0-.817-.109c-.657 0-1.1.135-1.329.404-.23.27-.345.594-.345.975H7.787v-.473a2.3 2.3 0 0 1 .187-.925c.125-.289.325-.542.601-.758.276-.217.623-.387 1.044-.513.42-.124.925-.187 1.516-.187z"/></g></svg>