<svg width="24" height="24" fill="#747C81" xmlns="http://www.w3.org/2000/svg"><path fill-rule="evenodd" clip-rule="evenodd" d="M.85 15.4c0-2.502 2.023-4.65 4.65-4.65 2.514 0 4.65 2.136 4.65 4.65 0 2.502-2.024 4.65-4.65 4.65-2.515 0-4.65-2.136-4.65-4.65zm4.65-3.15c-1.774 0-3.15 1.452-3.15 3.15 0 1.686 1.464 3.15 3.15 3.15 1.773 0 3.15-1.452 3.15-3.15 0-1.686-1.465-3.15-3.15-3.15zM11.65 19.7a3.226 3.226 0 0 1 3.25-3.25 3.226 3.226 0 0 1 3.25 3.25 3.226 3.226 0 0 1-3.25 3.25 3.226 3.226 0 0 1-3.25-3.25zm3.25-1.75c-.985 0-1.75.764-1.75 1.75s.765 1.75 1.75 1.75c.986 0 1.75-.764 1.75-1.75s-.764-1.75-1.75-1.75zM9.85 7.7c0-3.714 2.935-6.65 6.65-6.65 3.714 0 6.65 2.936 6.65 6.65 0 3.714-2.936 6.65-6.65 6.65-3.715 0-6.65-2.936-6.65-6.65zm6.65-5.15c-2.886 0-5.15 2.264-5.15 5.15 0 2.886 2.264 5.15 5.15 5.15 2.885 0 5.15-2.264 5.15-5.15 0-2.886-2.265-5.15-5.15-5.15z"/></svg>