<svg width="23" height="20" fill="none" xmlns="http://www.w3.org/2000/svg"><path d="m14.223 1.792 7.445 12.401c1.07 1.782.545 4.125-1.174 5.234a3.57 3.57 0 0 1-1.937.573H3.665C1.64 20 0 18.3 0 16.201c0-.71.192-1.404.553-2.008L8 1.793C9.07.01 11.33-.536 13.048.573a3.73 3.73 0 0 1 1.175 1.218zM11.11 15.556c.295 0 .786-.326.786-.326s.325-.49.325-.786a1.111 1.111 0 1 0-1.11 1.112zm0-10a1.111 1.111 0 0 0-1.11 1.11v4.445a1.111 1.111 0 1 0 2.221 0V6.667a1.111 1.111 0 0 0-1.11-1.112z" fill="#fff"/></svg>