<svg width="22" height="28" fill="none" xmlns="http://www.w3.org/2000/svg"><g clip-path="url(#a)"><path fill-rule="evenodd" clip-rule="evenodd" d="M5.2 1.885v22.88H4.16V1.885H5.2Z" fill="#6D7A86" stroke="#6D7A86" stroke-miterlimit="10" stroke-linecap="square"/><path fill-rule="evenodd" clip-rule="evenodd" d="M.325 1.04h18.649c1.299 0 2.411 1.015 2.411 2.34v20.28c0 1.325-1.112 2.34-2.411 2.34H.325V1.04Zm1.56 1.56v21.84h17.089c.503 0 .851-.382.851-.78V3.38c0-.398-.348-.78-.851-.78H1.884Z" fill="#6D7A86" stroke="#6D7A86" stroke-width=".3" stroke-miterlimit="10" stroke-linecap="square"/><mask id="b" maskUnits="userSpaceOnUse" x="6.917" y="7.917" width="11" height="10" fill="#000"><path fill="#fff" d="M6.917 7.917h11v10h-11z"/><path fill-rule="evenodd" clip-rule="evenodd" d="M11.583 9.833a.458.458 0 0 0-.458.459v.458h2.75v-.458a.458.458 0 0 0-.458-.459h-1.834Zm-.916 1.834H9.292a.458.458 0 0 0-.459.458v.71l.617.55a.458.458 0 0 0 .305.115h5.67c.136 0 .264-.06.35-.163l.392-.463v-.749a.458.458 0 0 0-.459-.458H10.667Zm5.5 2.533c-.22.14-.476.217-.741.217H9.755c-.337 0-.662-.124-.914-.348l-.008-.007v2.188c0 .253.206.458.459.458h6.416a.458.458 0 0 0 .459-.458V14.2Zm-5.959-3.908v.458h-.916c-.76 0-1.375.616-1.375 1.375v4.125c0 .76.615 1.375 1.375 1.375h6.416c.76 0 1.375-.616 1.375-1.375v-4.125c0-.76-.615-1.375-1.375-1.375h-.916v-.458a1.375 1.375 0 0 0-1.375-1.375h-1.834a1.375 1.375 0 0 0-1.375 1.375Z"/></mask><path fill-rule="evenodd" clip-rule="evenodd" d="M11.583 9.833a.458.458 0 0 0-.458.459v.458h2.75v-.458a.458.458 0 0 0-.458-.459h-1.834Zm-.916 1.834H9.292a.458.458 0 0 0-.459.458v.71l.617.55a.458.458 0 0 0 .305.115h5.67c.136 0 .264-.06.35-.163l.392-.463v-.749a.458.458 0 0 0-.459-.458H10.667Zm5.5 2.533c-.22.14-.476.217-.741.217H9.755c-.337 0-.662-.124-.914-.348l-.008-.007v2.188c0 .253.206.458.459.458h6.416a.458.458 0 0 0 .459-.458V14.2Zm-5.959-3.908v.458h-.916c-.76 0-1.375.616-1.375 1.375v4.125c0 .76.615 1.375 1.375 1.375h6.416c.76 0 1.375-.616 1.375-1.375v-4.125c0-.76-.615-1.375-1.375-1.375h-.916v-.458a1.375 1.375 0 0 0-1.375-1.375h-1.834a1.375 1.375 0 0 0-1.375 1.375Z" fill="#6D7A86"/><path d="m11.26 9.968.14.141-.14-.141Zm-.135.782h-.2v.2h.2v-.2Zm2.75 0v.2h.2v-.2h-.2Zm-.134-.782.141-.142-.141.142Zm-3.077 1.699v-.2.2Zm.003 0v.2-.2Zm-1.834 1.169h-.2v.09l.067.06.133-.15Zm.617.548.133-.15-.133.15Zm6.326-.047.153.13-.153-.13Zm.39-.463.154.13.047-.057v-.073h-.2Zm-1.83-1.207v-.2.2Zm-.003 0v.2-.2Zm-.002 0v-.2.2Zm-3.662 0v-.2.2Zm5.498 2.533h.2v-.365l-.308.196.108.169Zm-7.326-.13.133-.15-.133.15Zm-.008-.008.133-.15-.333-.295v.445h.2Zm1.375-3.312v.2h.2v-.2h-.2Zm4.584 0h-.2v.2h.2v-.2Zm-.403-1.43.141-.142-.141.141Zm-3.778 0 .141.14-.141-.14Zm.79.789a.259.259 0 0 1 .182-.076v-.4a.658.658 0 0 0-.465.193l.283.283Zm-.076.183c0-.069.027-.134.076-.183l-.283-.283a.658.658 0 0 0-.193.466h.4Zm0 .458v-.458h-.4v.458h.4Zm2.55-.2h-2.75v.4h2.75v-.4Zm-.2-.258v.458h.4v-.458h-.4Zm-.076-.183a.259.259 0 0 1 .076.183h.4a.658.658 0 0 0-.193-.466l-.283.283Zm-.182-.076c.068 0 .134.028.182.076l.283-.283a.658.658 0 0 0-.465-.193v.4Zm-1.834 0h1.834v-.4h-1.834v.4Zm-.92 1.834h.003l.001-.4h-.002l-.001.4Zm-1.371 0h1.372v-.4H9.292v.4Zm-.259.258c0-.143.116-.258.259-.258v-.4a.658.658 0 0 0-.659.658h.4Zm0 .71v-.71h-.4v.71h.4Zm-.333.15.617.549.266-.3-.617-.548-.266.3Zm.617.549c.12.107.277.166.438.166v-.4a.258.258 0 0 1-.172-.065l-.266.299Zm.438.166h5.67v-.4h-5.67v.4Zm5.67 0a.658.658 0 0 0 .504-.234l-.306-.258a.259.259 0 0 1-.197.092v.4Zm.504-.234.39-.463-.305-.258-.39.463.305.258Zm.038-1.341v.75h.4v-.75h-.4Zm-.259-.258c.143 0 .259.115.259.258h.4a.658.658 0 0 0-.659-.658v.4Zm-1.372 0h1.372v-.4h-1.372v.4Zm-.002 0h.002v-.4h-.003v.4Zm-.003 0h.002v-.4h-.002v.4Zm-3.662 0h3.662v-.4h-3.662v.4Zm-.002 0h.002v-.4h-.003l.001.4Zm5.392 2.164c-.187.12-.407.186-.633.186v.4c.304 0 .598-.088.848-.249l-.215-.337Zm-.633.186H9.755v.4h5.67v-.4Zm-5.671 0c-.288 0-.566-.106-.78-.297l-.267.299c.289.256.661.398 1.047.398v-.4Zm-.78-.297-.009-.007-.266.299.008.007.266-.3Zm.058 2.33v-2.188h-.4v2.188h.4Zm.259.258a.258.258 0 0 1-.259-.258h-.4c0 .364.295.658.659.658v-.4Zm6.416 0H9.292v.4h6.416v-.4Zm.259-.258a.258.258 0 0 1-.259.258v.4a.658.658 0 0 0 .659-.658h-.4Zm0-2.05v2.05h.4V14.2h-.4Zm-5.559-3.45v-.458h-.4v.458h.4Zm-1.116.2h.916v-.4h-.916v.4Zm-1.175 1.175c0-.649.526-1.175 1.175-1.175v-.4c-.87 0-1.575.705-1.575 1.575h.4Zm0 4.125v-4.125h-.4v4.125h.4Zm1.175 1.175a1.175 1.175 0 0 1-1.175-1.175h-.4c0 .87.705 1.575 1.575 1.575v-.4Zm6.416 0H9.292v.4h6.416v-.4Zm1.175-1.175c0 .649-.526 1.175-1.175 1.175v.4c.87 0 1.575-.705 1.575-1.575h-.4Zm0-4.125v4.125h.4v-4.125h-.4Zm-1.175-1.175c.65 0 1.175.526 1.175 1.175h.4c0-.87-.705-1.575-1.575-1.575v.4Zm-.916 0h.916v-.4h-.916v.4Zm-.2-.658v.458h.4v-.458h-.4Zm-.345-.831c.22.22.345.52.345.83h.4c0-.417-.166-.818-.462-1.113l-.282.283Zm-.83-.344c.311 0 .61.123.83.344l.283-.283a1.575 1.575 0 0 0-1.113-.461v.4Zm-1.834 0h1.834v-.4h-1.834v.4Zm-.83.344c.22-.22.519-.344.83-.344v-.4c-.417 0-.818.166-1.113.461l.282.283Zm-.345.83c0-.31.124-.61.344-.83l-.282-.283a1.575 1.575 0 0 0-.462 1.114h.4Z" fill="#6D7A86" mask="url(#b)"/></g><defs><clipPath id="a"><path fill="#fff" d="M0 0h21.84v27.04H0z"/></clipPath></defs></svg>