<svg width="24" height="24" fill="none" xmlns="http://www.w3.org/2000/svg"><path d="M15.111 3.792l7.446 12.401c1.07 1.781.544 4.125-1.175 5.234a3.57 3.57 0 01-1.936.573H4.553C2.53 22 .89 20.3.89 18.201c0-.71.192-1.404.553-2.008L8.89 3.792c1.069-1.781 3.329-2.327 5.048-1.218a3.73 3.73 0 011.174 1.218zM12 17.555c.295 0 .786-.325.786-.325s.325-.49.325-.786A1.111 1.111 0 1012 17.555zm0-10a1.111 1.111 0 00-1.111 1.111v4.445a1.111 1.111 0 002.222 0V8.666A1.111 1.111 0 0012 7.556z" fill="#FEB83E"/></svg>