<svg version="1" xmlns="http://www.w3.org/2000/svg" viewBox="0 0 845 202"><g id="GRUPO-7"><path fill="#52BADB" d="M632.512 40.595h20.135V60.73h-20.135z"/><path fill="#5AC6E2" d="M612.377 141.27h20.135v20.135h-20.135z"/><path fill="#48AFD3" d="M511.701.325h20.135V20.46h-20.135z"/><path fill="#65CEEA" d="M572.106 161.405h20.135v20.135h-20.135z"/><path fill="#48AFD3" d="M652.646 141.27h20.135v20.135h-20.135zm-60.404-80.54h20.135v20.135h-20.135z"/><path fill="#52BADB" d="M212.488 101h20.135v20.135h-20.135z"/><path fill="#5AC6E2" d="M111.812 121.135h20.135v20.135h-20.135z"/><path fill="#48AFD3" d="M91.678 80.865h20.135V101H91.678z"/><path fill="#65CEEA" d="M252.757 40.595h20.135V60.73h-20.135z"/></g><g id="GRUPO-6"><path fill="#5AC6E2" d="M511.701 20.46h20.135v20.135h-20.135zm181.216 40.27h20.135v20.135h-20.135z"/><path fill="#65CEEA" d="M551.972 101h20.135v20.135h-20.135zm100.674-40.27h20.135v20.135h-20.135zM551.972 181.54h20.135v20.135h-20.135z"/><path fill="#52BADB" d="M272.893 80.865h20.135V101h-20.135z"/><path fill="#48AFD3" d="M272.893 121.135h20.135v20.135h-20.135zm-40.27 0h20.135v20.135h-20.135zM172.217 20.46h20.135v20.135h-20.135z"/><path fill="#65CEEA" d="M172.217 60.73h20.135v20.135h-20.135z"/></g><g id="GRUPO-5"><path fill="#5AC6E2" d="M652.646 161.405h20.135v20.135h-20.135zM572.106 101h20.135v20.135h-20.135z"/><path fill="#65CEEA" d="M632.512 181.541h20.135v20.135h-20.135z"/><path fill="#52BADB" d="M572.106.325h20.135V20.46h-20.135z"/><path fill="#48AFD3" d="M612.377 80.865h20.135V101h-20.135z"/><path fill="#5AC6E2" d="M272.893 20.46h20.135v20.135h-20.135z"/><path fill="#48AFD3" d="M152.083 121.135h20.135v20.135h-20.135z"/><path fill="#5AC6E2" d="M232.623 80.865h20.135V101h-20.135z"/><path fill="#48AFD3" d="M232.623 181.541h20.135v20.135h-20.135z"/><path fill="#65CEEA" d="M252.757 141.27h20.135v20.135h-20.135z"/></g><g id="GRUPO-4"><path fill="#52BADB" d="M652.646 20.46h20.135v20.135h-20.135z"/><path fill="#5AC6E2" d="M713.052 101h20.135v20.135h-20.135z"/><path fill="#65CEEA" d="M572.106 60.73h20.135v20.135h-20.135z"/><path fill="#48AFD3" d="M551.972 20.46h20.135v20.135h-20.135z"/><path fill="#5AC6E2" d="M551.972 141.27h20.135v20.135h-20.135z"/><path fill="#48AFD3" d="M252.757 60.73h20.135v20.135h-20.135z"/><path fill="#5AC6E2" d="M172.217 161.405h20.135v20.135h-20.135z"/><path fill="#48AFD3" d="M192.352 60.73h20.135v20.135h-20.135z"/><path fill="#65CEEA" d="M232.623 101h20.135v20.135h-20.135z"/><path fill="#5AC6E2" d="M272.893 141.27h20.135v20.135h-20.135z"/></g><g id="GRUPO-3"><path fill="#5AC6E2" d="M592.242 40.595h20.135V60.73h-20.135zm0 120.81h20.135v20.135h-20.135z"/><path fill="#65CEEA" d="M531.837 40.595h20.135V60.73h-20.135z"/><path fill="#5AC6E2" d="M652.646 80.865h20.135V101h-20.135z"/><path fill="#48AFD3" d="M551.972 121.135h20.135v20.135h-20.135zm-359.62 40.27h20.135v20.135h-20.135z"/><path fill="#65CEEA" d="M71.543 121.135h20.135v20.135H71.543z"/><path fill="#5AC6E2" d="M192.352 141.27h20.135v20.135h-20.135z"/><path fill="#48AFD3" d="M293.028 20.46h20.135v20.135h-20.135z"/><path fill="#5AC6E2" d="M131.948 40.595h20.135V60.73h-20.135z"/></g><g id="GRUPO-2"><path fill="#52BADB" d="M511.701 40.595h20.135V60.73h-20.135z"/><path fill="#5AC6E2" d="M672.782 121.135h20.135v20.135h-20.135z"/><path fill="#65CEEA" d="M733.188 121.136h20.135v20.135h-20.135z"/><path fill="#48AFD3" d="M572.106 121.135h20.135v20.135h-20.135z"/><path fill="#5AC6E2" d="M753.323 80.865h20.135V101h-20.135zM272.893 60.73h20.135v20.135h-20.135zm0 120.811h20.135v20.135h-20.135zM152.083 80.865h20.135V101h-20.135z"/><path fill="#65CEEA" d="M172.217 121.135h20.135v20.135h-20.135z"/><path fill="#5AC6E2" d="M212.488 40.595h20.135V60.73h-20.135z"/></g><g id="GRUPO-1"><path fill="#52BADB" d="M692.917 141.27h20.135v20.135h-20.135z"/><path fill="#48AFD3" d="M692.917 40.595h20.135V60.73h-20.135z"/><path fill="#5AC6E2" d="M592.242 80.865h20.135V101h-20.135z"/><path fill="#65CEEA" d="M632.512 101h20.135v20.135h-20.135zm-20.135-80.54h20.135v20.135h-20.135zM152.083 181.541h20.135v20.135h-20.135z"/><path fill="#48AFD3" d="M212.488 80.865h20.135V101h-20.135zM111.812 101h20.135v20.135h-20.135z"/><path fill="#65CEEA" d="M192.352.325h20.135V20.46h-20.135zm60.405 161.08h20.135v20.135h-20.135z"/></g><style>@keyframes pisca{50%{opacity:0}}#GRUPO-1,#GRUPO-2,#GRUPO-3,#GRUPO-4,#GRUPO-5,#GRUPO-6,#GRUPO-7{animation:pisca linear infinite;animation-duration:2s;opacity:1;animation-iteration-count:5}#GRUPO-2{animation-delay:.285s}#GRUPO-3{animation-delay:.57s}#GRUPO-4{animation-delay:.855s}#GRUPO-5{animation-delay:1.14s}#GRUPO-6{animation-delay:1.425s}#GRUPO-7{animation-delay:1.71s}</style></svg>