<svg version="1" xmlns="http://www.w3.org/2000/svg" viewBox="0 0 845 202"><g id="LINHA-10"><path fill="#F4C867" d="M720.742 193.372h-43.541c-6.696 0-12.125-5.428-12.125-12.125 0-6.696 5.429-12.125 12.125-12.125h43.541c6.696 0 12.125 5.429 12.125 12.125 0 6.697-5.429 12.125-12.125 12.125z"/><circle fill="#E8B360" cx="645.014" cy="181.247" r="12.125"/><path fill="#EDBB62" d="M612.827 193.372h-65.033c-6.696 0-12.125-5.429-12.125-12.125s5.429-12.125 12.125-12.125h65.033c6.696 0 12.125 5.429 12.125 12.125 0 6.697-5.429 12.125-12.125 12.125z"/></g><g id="LINHA-9"><path fill="#E8B360" d="M680.042 153.249h-68.756c-6.696 0-12.125-5.428-12.125-12.125 0-6.696 5.429-12.125 12.125-12.125h68.756c6.696 0 12.125 5.429 12.125 12.125s-5.429 12.125-12.125 12.125z"/><circle fill="#F4C867" cx="579.099" cy="141.124" r="12.125"/></g><g id="LINHA-8"><path fill="#EFC165" d="M833.375 113.125H678.58c-6.696 0-12.125-5.429-12.125-12.125s5.429-12.125 12.125-12.125h154.795c6.696 0 12.125 5.429 12.125 12.125s-5.429 12.125-12.125 12.125z"/><circle fill="#F4C867" cx="646.393" cy="101" r="12.125"/><path fill="#EDBB62" d="M614.206 113.125h-76.585c-6.696 0-12.125-5.429-12.125-12.125s5.429-12.125 12.125-12.125h76.585c6.696 0 12.125 5.429 12.125 12.125s-5.428 12.125-12.125 12.125z"/></g><g id="LINHA-7"><path fill="#E8B360" d="M749.957 73.001H643.65c-6.696 0-12.125-5.429-12.125-12.125s5.429-12.125 12.125-12.125h106.307c6.696 0 12.125 5.429 12.125 12.125 0 6.697-5.429 12.125-12.125 12.125z"/><path fill="#EFC165" d="M611.463 73.001h-64.729c-6.696 0-12.125-5.429-12.125-12.125s5.428-12.125 12.125-12.125h64.729c6.696 0 12.125 5.429 12.125 12.125 0 6.697-5.428 12.125-12.125 12.125z"/></g><g id="LINHA-6"><path fill="#F4C867" d="M705.641 32.878h-76.026c-6.696 0-12.125-5.429-12.125-12.125s5.428-12.125 12.125-12.125h76.026c6.696 0 12.125 5.429 12.125 12.125s-5.428 12.125-12.125 12.125z"/><path fill="#EDBB62" d="M597.429 32.878h-140.13c-6.696 0-12.125-5.429-12.125-12.125s5.429-12.125 12.125-12.125h140.13c6.696 0 12.125 5.429 12.125 12.125s-5.429 12.125-12.125 12.125z"/></g><g id="LINHA-5"><path fill="#EFC165" d="M214.391 193.372H74.262c-6.696 0-12.125-5.428-12.125-12.125 0-6.696 5.429-12.125 12.125-12.125h140.13c6.696 0 12.125 5.429 12.125 12.125-.001 6.697-5.429 12.125-12.126 12.125z"/><path fill="#E8B360" d="M322.604 193.372h-76.026c-6.696 0-12.125-5.428-12.125-12.125 0-6.696 5.429-12.125 12.125-12.125h76.026c6.696 0 12.125 5.429 12.125 12.125 0 6.697-5.428 12.125-12.125 12.125z"/></g><g id="LINHA-4"><circle fill="#F4C867" cx="162.794" cy="141.124" r="12.125"/><path fill="#EDBB62" d="M335.455 153.249H194.981c-6.696 0-12.125-5.428-12.125-12.125 0-6.696 5.429-12.125 12.125-12.125h140.475c6.696 0 12.125 5.429 12.125 12.125-.001 6.696-5.429 12.125-12.126 12.125z"/></g><g id="LINHA-3"><path fill="#EFC165" d="M186.308 113.125H81.241c-6.696 0-12.125-5.429-12.125-12.125s5.429-12.125 12.125-12.125h105.067c6.696 0 12.125 5.429 12.125 12.125s-5.429 12.125-12.125 12.125zm75.728 0h-43.541c-6.696 0-12.125-5.429-12.125-12.125s5.428-12.125 12.125-12.125h43.541c6.696 0 12.125 5.429 12.125 12.125s-5.429 12.125-12.125 12.125z"/><circle fill="#F4C867" cx="294.222" cy="101" r="12.125"/></g><g id="LINHA-2"><path fill="#E8B360" d="M173.452 73.001H11.625C4.929 73.001-.5 67.573-.5 60.876c0-6.696 5.429-12.125 12.125-12.125h161.827c6.696 0 12.125 5.429 12.125 12.125 0 6.697-5.428 12.125-12.125 12.125z"/><path fill="#F4C867" d="M282.224 73.001h-76.585c-6.696 0-12.125-5.429-12.125-12.125s5.429-12.125 12.125-12.125h76.585c6.696 0 12.125 5.429 12.125 12.125 0 6.697-5.428 12.125-12.125 12.125z"/></g><g id="LINHA-1"><path fill="#EDBB62" d="M181.709 32.878h-65.033c-6.696 0-12.125-5.429-12.125-12.125s5.429-12.125 12.125-12.125h65.033c6.696 0 12.125 5.429 12.125 12.125s-5.428 12.125-12.125 12.125z"/><circle fill="#F4C867" cx="213.896" cy="20.753" r="12.125"/><path fill="#EFC165" d="M289.624 32.878h-43.541c-6.696 0-12.125-5.429-12.125-12.125s5.429-12.125 12.125-12.125h43.541c6.696 0 12.125 5.429 12.125 12.125s-5.429 12.125-12.125 12.125z"/></g><style>@keyframes desloca-direita{50%{transform:translateX(75px)}}@keyframes desloca-esquerda{50%{transform:translateX(-75px)}}#LINHA-1,#LINHA-2,#LINHA-3,#LINHA-4,#LINHA-5{animation:desloca-direita ease}#LINHA-10,#LINHA-6,#LINHA-7,#LINHA-8,#LINHA-9{animation:desloca-esquerda ease}#LINHA-1,#LINHA-10,#LINHA-2,#LINHA-3,#LINHA-4,#LINHA-5,#LINHA-6,#LINHA-7,#LINHA-8,#LINHA-9{animation-duration:4s;animation-iteration-count:5}#LINHA-2,#LINHA-9{animation-delay:1.6s}#LINHA-3,#LINHA-8{animation-delay:3.2s}#LINHA-4,#LINHA-7{animation-delay:.8s}#LINHA-5,#LINHA-6{animation-delay:2.4s}</style></svg>