<svg xmlns="http://www.w3.org/2000/svg" width="22" height="24" viewBox="0 0 22 24"><path fill="#FFF" fill-rule="evenodd" d="M17.48 10.975H1.12v-6.22h16.36l3.17 3.11-3.17 3.11zM11.186 21.95h-1.118v-3.475a.554.554 0 0 0-.56-.55.554.554 0 0 0-.559.55v3.475H7.83v-9.877h3.356v9.877zM7.83 3.658h3.356v-2.56H7.83v2.56zm14.006 3.82l-3.729-3.659a.566.566 0 0 0-.395-.16h-5.407V.548a.554.554 0 0 0-.56-.549H7.272a.554.554 0 0 0-.56.549v3.11H.56a.553.553 0 0 0-.559.548v7.317c0 .303.25.549.56.549h6.152v10.426c0 .303.25.549.56.549h4.474a.554.554 0 0 0 .559-.55V12.074h5.407c.148 0 .29-.058.395-.161l3.73-3.658a.542.542 0 0 0 0-.777z" opacity=".9"/></svg>