<svg xmlns="http://www.w3.org/2000/svg" width="19" height="26"><g fill="none" fill-rule="evenodd" stroke="#747C83" stroke-linecap="square" stroke-width="2"><path d="M3.57 24.919h11.86M9.5 17.802h0a5.535 5.535 0 01-5.535-5.535V6.733A5.535 5.535 0 019.5 1.198h0a5.535 5.535 0 015.535 5.535v5.534A5.535 5.535 0 019.5 17.802zm0 2.768v4.349"/><path d="M17.802 12.267A8.302 8.302 0 019.5 20.57h0a8.302 8.302 0 01-8.302-8.303m2.767-4.348h2.372m-2.372 3.162h2.372m6.326-3.162h2.372m-2.372 3.162h2.372"/></g></svg>