<svg version="1" xmlns="http://www.w3.org/2000/svg" viewBox="0 0 845 202" enable-background="new 0 0 845 202"><style>#Retangulo-4{animation:retangulo-4;animation-duration:8s;animation-timing-function:linear;animation-iteration-count:3}@keyframes retangulo-4{0%,to{transform:translateX(0)}50%{transform:translateX(845px)}}#Retangulo-1,#Retangulo-2,#Retangulo-3{animation-timing-function:ease-in-out;animation-iteration-count:3}#Retangulo-3{animation:retangulo-3;animation-duration:12s}@keyframes retangulo-3{0%,to{transform:translateX(0)}50%{transform:translateX(845px)}}#Retangulo-2{animation:retangulo-2;animation-duration:11s}@keyframes retangulo-2{0%{transform:translateX(-845px)}to{transform:translateX(845px)}}#Retangulo-1{animation:retangulo-1;animation-duration:10s}@keyframes retangulo-1{0%{transform:translateX(-845px)}to{transform:translateX(845px)}}</style><pattern id="pattern-4" width="300%" height="100%" patternUnits="userSpaceOnUse"><path id="Retangulo-4" fill="#0093DE" filter="url(#blur)" d="M0 0h845v202H0z"/></pattern><pattern id="pattern-3" width="300%" height="100%" patternUnits="userSpaceOnUse"><path id="Retangulo-3" fill="#008ED4" filter="url(#blur)" d="M0 0h845v202H0z"/></pattern><pattern id="pattern-2" width="300%" height="100%" patternUnits="userSpaceOnUse"><path id="Retangulo-2" fill="#0087D0" filter="url(#blur)" d="M0 0h845v202H0z"/></pattern><pattern id="pattern-1" width="300%" height="100%" patternUnits="userSpaceOnUse"><path id="Retangulo-1" fill="#007FD0" filter="url(#blur)" d="M0 0h845v220H0z"/></pattern><filter id="blur"><feGaussianBlur in="SourceGraphic" stdDeviation="5"/></filter><g id="LINHA-8" fill="url(#pattern-2)"><path d="M594.066 161.44a7.5 7.5 0 0 1-5.289-12.817L718.824 19.255a7.5 7.5 0 0 1 10.578 10.635L599.355 159.258a7.475 7.475 0 0 1-5.289 2.182z" id="Linha-8-2"/><g id="Elipse-8-2"><path fill="#0098E0" d="M724.113 34.572c-5.514 0-10-4.486-10-10s4.486-10 10-10 10 4.486 10 10-4.486 10-10 10z"/><path d="M724.113 19.573c2.757 0 5 2.243 5 5s-2.243 5-5 5-5-2.243-5-5 2.243-5 5-5m0-10c-8.284 0-15 6.716-15 15s6.716 15 15 15c8.284 0 15-6.716 15-15s-6.716-15-15-15z"/></g><path d="M594.068 161.442a7.47 7.47 0 0 1-2.269-.353l-107.066-33.94a7.5 7.5 0 0 1 4.533-14.299l107.066 33.94a7.5 7.5 0 0 1-2.264 14.652z" id="Linha-8-1"/><g id="Elipse-8-1"><path fill="#0098E0" d="M594.066 163.94c-5.514 0-10-4.486-10-10s4.486-10 10-10 10 4.486 10 10-4.486 10-10 10z"/><path d="M594.067 148.941c2.757 0 5 2.243 5 5s-2.243 5-5 5-5-2.243-5-5 2.243-5 5-5m0-10c-8.284 0-15 6.716-15 15s6.716 15 15 15c8.284 0 15-6.716 15-15s-6.716-15-15-15z"/></g></g><g id="LINHA-7" fill="url(#pattern-3)"><path d="M698.786 142.786a7.497 7.497 0 0 1-6.597-3.921 7.499 7.499 0 0 1 3.01-10.17L826.42 57.403a7.501 7.501 0 0 1 7.16 13.181l-131.221 71.292a7.47 7.47 0 0 1-3.573.91z" id="Linha-7-2"/><g id="Elipse-7-2"><path fill="#0098E0" d="M830 73.993c-5.514 0-10-4.486-10-10s4.486-10 10-10 10 4.486 10 10-4.486 10-10 10z"/><path d="M830 58.993c2.757 0 5 2.243 5 5s-2.243 5-5 5-5-2.243-5-5 2.243-5 5-5m0-10c-8.284 0-15 6.716-15 15s6.716 15 15 15 15-6.716 15-15-6.716-15-15-15z"/></g><path d="M698.784 142.787a7.513 7.513 0 0 1-1.94-.256l-217.78-58.168a7.501 7.501 0 0 1 3.871-14.493l217.779 58.168a7.501 7.501 0 0 1-1.93 14.749z" id="Linha-7-1"/><g id="Elipse-7-1"><path fill="#0098E0" d="M698.779 145.285c-5.514 0-10-4.486-10-10s4.486-10 10-10 10 4.486 10 10-4.486 10-10 10z"/><path d="M698.78 130.286c2.757 0 5 2.243 5 5s-2.243 5-5 5-5-2.243-5-5 2.243-5 5-5m0-10c-8.284 0-15 6.716-15 15 0 8.284 6.716 15 15 15 8.284 0 15-6.716 15-15 0-8.285-6.716-15-15-15z"/></g></g><g id="LINHA-6" fill="url(#pattern-1)"><path d="M698.785 194.502a7.5 7.5 0 0 1-6.685-4.09 7.5 7.5 0 0 1 3.267-10.091l101.221-51.715a7.498 7.498 0 0 1 10.091 3.267 7.5 7.5 0 0 1-3.267 10.091l-101.221 51.715a7.466 7.466 0 0 1-3.406.823z" id="Linha-6-3"/><g id="Elipse-6-3"><path fill="#0098E0" d="M800 145.285c-5.514 0-10-4.486-10-10s4.486-10 10-10 10 4.486 10 10-4.486 10-10 10z"/><path d="M800 130.286c2.757 0 5 2.243 5 5s-2.243 5-5 5-5-2.243-5-5 2.243-5 5-5m0-10c-8.284 0-15 6.716-15 15 0 8.284 6.716 15 15 15s15-6.716 15-15c0-8.285-6.716-15-15-15z"/></g><path d="M698.783 194.5a7.481 7.481 0 0 1-5.721-2.646L596.39 77.993a7.5 7.5 0 0 1 11.433-9.708l96.673 113.86a7.499 7.499 0 0 1-.862 10.571 7.47 7.47 0 0 1-4.851 1.784z" id="Linha-6-2"/><g id="Elipse-6-2"><path fill="#0098E0" d="M698.779 197c-5.514 0-10-4.486-10-10s4.486-10 10-10 10 4.486 10 10-4.486 10-10 10z"/><path d="M698.78 182c2.757 0 5 2.243 5 5s-2.243 5-5 5-5-2.243-5-5 2.243-5 5-5m0-10c-8.284 0-15 6.716-15 15s6.716 15 15 15c8.284 0 15-6.716 15-15s-6.716-15-15-15z"/></g><path d="M480.991 100.243a7.5 7.5 0 0 1-1.19-14.905l121.106-19.603a7.498 7.498 0 0 1 8.602 6.206 7.5 7.5 0 0 1-6.205 8.602l-121.106 19.603a7.621 7.621 0 0 1-1.207.097z" id="Linha-6-1"/><g id="Elipse-6-1"><path fill="#0098E0" d="M602.106 83.139c-5.514 0-10-4.486-10-10s4.486-10 10-10 10 4.486 10 10-4.486 10-10 10z"/><path d="M602.107 68.139c2.757 0 5 2.243 5 5s-2.243 5-5 5-5-2.243-5-5 2.243-5 5-5m0-10c-8.284 0-15 6.716-15 15s6.716 15 15 15c8.284 0 15-6.716 15-15s-6.716-15-15-15z"/></g></g><g id="LINHA-5" fill="url(#pattern-4)"><path d="M739.113 76.798a7.47 7.47 0 0 1-2.488-.427L582.25 22.075a7.5 7.5 0 0 1 4.976-14.15l154.375 54.296a7.5 7.5 0 0 1-2.488 14.577z" id="Linha-5-2"/><g id="Elipse-5-2"><path fill="#0098E0" d="M739.113 79c-5.514 0-10-4.486-10-10s4.486-10 10-10 10 4.486 10 10-4.486 10-10 10z"/><path d="M739.113 64c2.757 0 5 2.243 5 5s-2.243 5-5 5-5-2.243-5-5 2.243-5 5-5m0-10c-8.284 0-15 6.716-15 15s6.716 15 15 15c8.284 0 15-6.716 15-15s-6.716-15-15-15z"/></g><path d="M508.788 58.995a7.5 7.5 0 0 1-6.765-4.254 7.5 7.5 0 0 1 3.512-10.008L581.49 8.24a7.5 7.5 0 1 1 6.496 13.52l-75.955 36.493a7.475 7.475 0 0 1-3.243.742z" id="Linha-5-1"/><g id="Elipse-5-1"><path fill="#0098E0" d="M584.738 25c-5.514 0-10-4.486-10-10s4.486-10 10-10 10 4.486 10 10-4.486 10-10 10z"/><path d="M584.739 10c2.757 0 5 2.243 5 5s-2.243 5-5 5-5-2.243-5-5 2.243-5 5-5m0-10c-8.284 0-15 6.716-15 15s6.716 15 15 15c8.284 0 15-6.716 15-15s-6.716-15-15-15z"/></g></g><g id="LINHA-4" fill="url(#pattern-1)"><path d="M205.409 194.501c-.318 0-.64-.021-.964-.062l-153.51-19.697a7.5 7.5 0 0 1-6.484-8.394 7.5 7.5 0 0 1 8.394-6.485l153.511 19.697a7.5 7.5 0 0 1 6.484 8.394 7.503 7.503 0 0 1-7.431 6.547z" id="Linha-4-2"/><g id="Elipse-4-2"><path fill="#0098E0" d="M51.889 177.303c-5.514 0-10-4.486-10-10s4.486-10 10-10 10 4.486 10 10-4.486 10-10 10z"/><path d="M51.889 162.302c2.757 0 5 2.243 5 5s-2.243 5-5 5-5-2.243-5-5 2.243-5 5-5m0-10c-8.284 0-15 6.716-15 15 0 8.284 6.716 15 15 15s15-6.716 15-15c0-8.284-6.715-15-15-15z"/></g><path d="M205.406 194.501a7.5 7.5 0 0 1-4.409-13.574l119.6-86.71a7.5 7.5 0 0 1 8.805 12.145l-119.6 86.71a7.468 7.468 0 0 1-4.396 1.429z" id="Linha-4-1"/><g id="Elipse-4-1"><path fill="#0098E0" d="M205.4 197c-5.514 0-10-4.486-10-10s4.486-10 10-10 10 4.486 10 10-4.486 10-10 10z"/><path d="M205.4 182c2.757 0 5 2.243 5 5s-2.243 5-5 5-5-2.243-5-5 2.243-5 5-5m0-10c-8.284 0-15 6.716-15 15s6.716 15 15 15 15-6.716 15-15-6.716-15-15-15z"/></g></g><g id="LINHA-3" fill="url(#pattern-3)"><path d="M14.993 100.243a7.5 7.5 0 0 1-7.314-5.873 7.5 7.5 0 0 1 5.692-8.95l129.208-28.749a7.497 7.497 0 0 1 8.95 5.692 7.5 7.5 0 0 1-5.692 8.95L16.629 100.062a7.47 7.47 0 0 1-1.636.181z" id="Linha-3-3"/><g id="Elipse-3-3"><path fill="#0098E0" d="M15 102.742c-5.514 0-10-4.486-10-10s4.486-10 10-10 10 4.486 10 10-4.486 10-10 10z"/><path d="M15 87.742c2.757 0 5 2.243 5 5s-2.243 5-5 5-5-2.243-5-5 2.243-5 5-5m0-10c-8.284 0-15 6.716-15 15s6.716 15 15 15 15-6.716 15-15-6.716-15-15-15z"/></g><path d="M214.826 127.785a7.466 7.466 0 0 1-4.67-1.635l-70.624-56.292a7.5 7.5 0 1 1 9.35-11.73l70.624 56.292a7.5 7.5 0 0 1-4.68 13.365z" id="Linha-3-2"/><g id="Elipse-3-2"><path fill="#0098E0" d="M144.208 73.993c-5.514 0-10-4.486-10-10s4.486-10 10-10 10 4.486 10 10-4.486 10-10 10z"/><path d="M144.208 58.993c2.757 0 5 2.243 5 5s-2.243 5-5 5-5-2.243-5-5 2.243-5 5-5m0-10c-8.284 0-15 6.716-15 15s6.716 15 15 15 15-6.716 15-15-6.716-15-15-15z"/></g><path d="M214.835 127.787a7.502 7.502 0 0 1-2.98-14.385L318.69 67.214a7.5 7.5 0 0 1 5.952 13.768l-106.835 46.187a7.458 7.458 0 0 1-2.972.618z" id="Linha-3-1"/><g id="Elipse-3-1"><path fill="#0098E0" d="M214.831 130.285c-5.514 0-10-4.486-10-10s4.486-10 10-10 10 4.486 10 10-4.486 10-10 10z"/><path d="M214.831 115.286c2.757 0 5 2.243 5 5s-2.243 5-5 5-5-2.243-5-5 2.243-5 5-5m0-10c-8.284 0-15 6.716-15 15s6.716 15 15 15 15-6.716 15-15-6.716-15-15-15z"/></g></g><g id="LINHA-2" fill="url(#pattern-4)"><path d="M39.977 58.995a7.502 7.502 0 0 1-2.325-14.632l102.5-33.458a7.5 7.5 0 0 1 4.654 14.26l-102.5 33.458a7.51 7.51 0 0 1-2.329.372z" id="Linha-2-2"/><g id="Elipse-2-2"><path fill="#0098E0" d="M39.978 61.493c-5.514 0-10-4.486-10-10s4.486-10 10-10 10 4.486 10 10-4.486 10-10 10z"/><path d="M39.978 46.493c2.757 0 5 2.243 5 5s-2.243 5-5 5-5-2.243-5-5 2.243-5 5-5m0-10c-8.284 0-15 6.716-15 15s6.716 15 15 15 15-6.716 15-15-6.716-15-15-15z"/></g><path d="M313.812 101.163a7.463 7.463 0 0 1-3.024-.641L139.45 24.896a7.5 7.5 0 0 1-3.833-9.89 7.498 7.498 0 0 1 9.89-3.833l171.338 75.626a7.5 7.5 0 0 1-3.033 14.364z" id="Linha-2-1"/><g id="Elipse-2-1"><path fill="#0098E0" d="M142.478 28.035c-5.514 0-10-4.486-10-10s4.486-10 10-10 10 4.486 10 10-4.486 10-10 10z"/><path d="M142.478 13.035c2.757 0 5 2.243 5 5s-2.243 5-5 5-5-2.243-5-5 2.243-5 5-5m0-10c-8.284 0-15 6.716-15 15s6.716 15 15 15 15-6.716 15-15-6.716-15-15-15z"/></g></g><g id="LINHA-1" fill="url(#pattern-2)"><path d="M108.03 146.16a7.5 7.5 0 0 1-4.907-13.175L245.575 9.898a7.5 7.5 0 0 1 9.807 11.349L112.93 144.335a7.469 7.469 0 0 1-4.9 1.825z" id="Linha-1-2"/><g id="Elipse-1-2"><path fill="#0098E0" d="M108.027 148.66c-5.514 0-10-4.486-10-10s4.486-10 10-10 10 4.486 10 10-4.486 10-10 10z"/><path d="M108.027 133.661c2.757 0 5 2.243 5 5s-2.243 5-5 5-5-2.243-5-5 2.243-5 5-5m0-10c-8.284 0-15 6.716-15 15 0 8.284 6.716 15 15 15s15-6.716 15-15c0-8.285-6.716-15-15-15z"/></g><path d="M313.81 65.35a7.467 7.467 0 0 1-4.157-1.263l-63.338-42.276a7.501 7.501 0 0 1 8.327-12.477L317.98 51.61a7.501 7.501 0 0 1-4.17 13.74z" id="Linha-1-1"/><g id="Elipse-1-1"><path fill="#0098E0" d="M250.479 25.573c-5.514 0-10-4.486-10-10s4.486-10 10-10 10 4.486 10 10-4.486 10-10 10z"/><path d="M250.479 10.573c2.757 0 5 2.243 5 5s-2.243 5-5 5-5-2.243-5-5 2.243-5 5-5m0-10c-8.284 0-15 6.716-15 15s6.716 15 15 15c8.284 0 15-6.716 15-15s-6.716-15-15-15z"/></g></g></svg>