<svg version="1" xmlns="http://www.w3.org/2000/svg" viewBox="0 0 845.911 202.941"><g id="GRUPO-8"><circle fill="#A063DB" cx="304.411" cy="126.838" r="25.368"/><path fill="#8E62CC" d="M126.838 152.206c14.01 0 25.368 11.357 25.368 25.368 0 14.01-11.357 25.368-25.368 25.368v-50.736z"/><circle fill="#8E62CC" cx="177.573" cy="76.103" r="25.368"/><path fill="#9763D3" d="M279.044 101.47c-14.01 0-25.368-11.357-25.368-25.368s11.357-25.368 25.368-25.368v50.736zm-50.736-76.102v25.368c-14.01 0-25.368-11.357-25.368-25.368h25.368z"/><path fill="#AB64E2" d="M541.5 0c14.01 0 25.368 11.357 25.368 25.368S555.51 50.735 541.5 50.735V0z"/><path fill="#A063DB" d="M490.765 126.838v25.368c14.01 0 25.368-11.357 25.368-25.368h-25.368z"/><path fill="#8E62CC" d="M465.397 152.206c14.01 0 25.368-11.357 25.368-25.368s-11.357-25.368-25.368-25.368v50.736z"/><path fill="#A063DB" d="M693.706 126.838h-25.368c0 14.01 11.357 25.368 25.368 25.368v-25.368z"/></g><g id="GRUPO-7"><path fill="#AB64E2" d="M380.514 101.47v25.368c-14.01 0-25.368-11.357-25.368-25.368h25.368zM101.47 177.573v25.368c-14.01 0-25.368-11.357-25.368-25.368h25.368z"/><path fill="#8E62CC" d="M202.941 177.573c0-14.01 11.357-25.368 25.368-25.368 14.01 0 25.368 11.357 25.368 25.368h-50.736z"/><path fill="#AB64E2" d="M50.735 76.103c0-14.01 11.357-25.368 25.368-25.368s25.368 11.357 25.368 25.368H50.735zm389.295 76.103v25.368c-14.01 0-25.368-11.357-25.368-25.368h25.368z"/><path fill="#9763D3" d="M592.235 177.573v25.368c-14.01 0-25.368-11.357-25.368-25.368h25.368z"/><path fill="#A063DB" d="M465.397 50.735V25.368c14.01 0 25.368 11.357 25.368 25.368h-25.368zm228.309-25.367V0c14.01 0 25.368 11.357 25.368 25.368h-25.368z"/><path fill="#AB64E2" d="M820.544 126.838v25.368c14.01 0 25.368-11.357 25.368-25.368h-25.368z"/><path fill="#8E62CC" d="M592.235 152.206c14.01 0 25.368-11.357 25.368-25.368s-11.357-25.368-25.368-25.368v50.736z"/></g><g id="GRUPO-6"><path fill="#AB64E2" d="M152.206 126.838c0-14.01 11.357-25.368 25.368-25.368 14.01 0 25.368 11.357 25.368 25.368h-50.736z"/><path fill="#8E62CC" d="M279.044 177.573v25.368c-14.01 0-25.368-11.357-25.368-25.368h25.368z"/><path fill="#AB64E2" d="M228.308 76.103V50.735c14.01 0 25.368 11.357 25.368 25.368h-25.368z"/><path fill="#8E62CC" d="M304.411 25.368C304.411 11.357 315.769 0 329.779 0s25.368 11.357 25.368 25.368h-50.736z"/><circle fill="#A063DB" cx="152.206" cy="25.368" r="25.368"/><circle fill="#A063DB" cx="465.397" cy="177.573" r="25.368"/><path fill="#A063DB" d="M516.133 50.735h-25.368c0-14.01 11.357-25.368 25.368-25.368v25.368z"/><path fill="#8E62CC" d="M642.971 25.368v25.368c-14.01 0-25.368-11.357-25.368-25.368h25.368z"/><circle fill="#AB64E2" cx="642.971" cy="126.838" r="25.368"/><path fill="#AB64E2" d="M516.133 126.838c0 14.01 11.357 25.368 25.368 25.368s25.368-11.357 25.368-25.368h-50.736z"/><path fill="#9763D3" d="M414.662 76.103V50.735c14.01 0 25.368 11.357 25.368 25.368h-25.368z"/></g><g id="GRUPO-5"><path fill="#AB64E2" d="M355.146 177.573c0 14.01-11.357 25.368-25.368 25.368s-25.368-11.357-25.368-25.368h50.736zM126.838 76.103v25.368c-14.01 0-25.368-11.357-25.368-25.368h25.368z"/><path fill="#A063DB" d="M304.411 101.47h-25.368c0-14.01 11.357-25.368 25.368-25.368v25.368z"/><path fill="#AB64E2" d="M177.573 25.368V0c14.01 0 25.368 11.357 25.368 25.368h-25.368z"/><path fill="#9763D3" d="M380.514 50.735c-14.01 0-25.368-11.357-25.368-25.368S366.504 0 380.514 0v50.735zm237.089 126.838h-25.368c0-14.01 11.357-25.368 25.368-25.368v25.368zM541.5 25.368h-25.368C516.133 11.357 527.49 0 541.5 0v25.368zm152.206 101.47v25.368c14.01 0 25.368-11.357 25.368-25.368h-25.368z"/><circle fill="#A063DB" cx="795.176" cy="126.838" r="25.368"/><circle fill="#9763D3" cx="465.397" cy="76.103" r="25.368"/></g><g id="GRUPO-4"><path fill="#A063DB" d="M126.838 177.573H101.47c0-14.01 11.357-25.368 25.368-25.368v25.368zm253.676 0v25.368c-14.01 0-25.368-11.357-25.368-25.368h25.368z"/><path fill="#AB64E2" d="M0 50.735c14.01 0 25.368 11.357 25.368 25.368S14.01 101.47 0 101.47V50.735z"/><path fill="#A063DB" d="M228.308 76.103H202.94c0-14.01 11.357-25.368 25.368-25.368v25.368z"/><circle fill="#AB64E2" cx="279.044" cy="25.368" r="25.368"/><path fill="#8E62CC" d="M516.133 177.573c0-14.01 11.357-25.368 25.368-25.368s25.368 11.357 25.368 25.368h-50.736z"/><path fill="#AB64E2" d="M617.603 25.368C617.603 11.357 628.96 0 642.971 0s25.368 11.357 25.368 25.368h-50.736z"/><circle fill="#AB64E2" cx="440.03" cy="126.838" r="25.368"/><path fill="#8E62CC" d="M541.5 50.735c14.01 0 25.368 11.357 25.368 25.368S555.51 101.47 541.5 101.47V50.735z"/><path fill="#AB64E2" d="M693.706 101.47c-14.01 0-25.368-11.357-25.368-25.368s11.357-25.368 25.368-25.368v50.736z"/></g><g id="GRUPO-3"><path fill="#8E62CC" d="M228.308 126.838v25.368c-14.01 0-25.368-11.357-25.368-25.368h25.368z"/><circle fill="#9763D3" cx="50.735" cy="177.573" r="25.368"/><path fill="#A063DB" d="M279.044 177.573v-25.368c14.01 0 25.368 11.357 25.368 25.368h-25.368zm76.102-101.47V50.735c14.01 0 25.368 11.357 25.368 25.368h-25.368z"/><path fill="#9763D3" d="M126.838 50.735c14.01 0 25.368 11.357 25.368 25.368s-11.357 25.368-25.368 25.368V50.735zm389.295 152.206c-14.01 0-25.368-11.357-25.368-25.368 0-14.01 11.357-25.368 25.368-25.368v50.736z"/><path fill="#8E62CC" d="M693.706 25.368v25.368c-14.01 0-25.368-11.357-25.368-25.368h25.368zm50.735 76.102c-14.01 0-25.368 11.357-25.368 25.368s11.357 25.368 25.368 25.368V101.47z"/><circle fill="#AB64E2" cx="592.235" cy="76.103" r="25.368"/><path fill="#AB64E2" d="M490.765 76.103V50.735c14.01 0 25.368 11.357 25.368 25.368h-25.368z"/></g><g id="GRUPO-2"><path fill="#9763D3" d="M355.146 126.838h-25.368c0-14.01 11.357-25.368 25.368-25.368v25.368z"/><path fill="#A063DB" d="M253.676 126.838h-25.368c0-14.01 11.357-25.368 25.368-25.368v25.368z"/><circle fill="#AB64E2" cx="177.573" cy="177.573" r="25.368"/><path fill="#8E62CC" d="M50.735 76.103H25.368c0-14.01 11.357-25.368 25.368-25.368v25.368z"/><path fill="#A063DB" d="M228.308 0c14.01 0 25.368 11.357 25.368 25.368s-11.357 25.368-25.368 25.368V0z"/><circle fill="#9763D3" cx="668.338" cy="177.573" r="25.368"/><circle fill="#8E62CC" cx="440.03" cy="25.368" r="25.368"/><path fill="#AB64E2" d="M769.809 25.368c0 14.01-11.357 25.368-25.368 25.368s-25.368-11.357-25.368-25.368h50.736z"/><path fill="#A063DB" d="M592.235 126.838V101.47c-14.01 0-25.368 11.357-25.368 25.368h25.368zm25.368-50.735c0-14.01 11.357-25.368 25.368-25.368s25.368 11.357 25.368 25.368h-50.736z"/></g><g id="GRUPO-1"><path fill="#9763D3" d="M152.206 152.206c-14.01 0-25.368-11.357-25.368-25.368s11.357-25.368 25.368-25.368v50.736z"/><path fill="#AB64E2" d="M279.044 126.838c0 14.01-11.357 25.368-25.368 25.368s-25.368-11.357-25.368-25.368h50.736z"/><path fill="#A063DB" d="M228.308 177.573v25.368c-14.01 0-25.368-11.357-25.368-25.368h25.368z"/><circle fill="#8E62CC" cx="329.779" cy="76.103" r="25.368"/><path fill="#8E62CC" d="M101.47 25.368V0c14.01 0 25.368 11.357 25.368 25.368H101.47z"/><path fill="#A063DB" d="M642.971 177.573c0 14.01-11.357 25.368-25.368 25.368s-25.368-11.357-25.368-25.368h50.736z"/><path fill="#AB64E2" d="M719.073 177.573h-25.368c0-14.01 11.357-25.368 25.368-25.368v25.368z"/><circle fill="#A063DB" cx="592.235" cy="25.368" r="25.368"/><path fill="#AB64E2" d="M769.809 101.47h-25.368c0 14.01 11.357 25.368 25.368 25.368V101.47z"/><path fill="#9763D3" d="M541.5 76.103v25.368c-14.01 0-25.368-11.357-25.368-25.368H541.5z"/></g><style>@keyframes pisca{50%{opacity:0}}#GRUPO-1,#GRUPO-2,#GRUPO-3,#GRUPO-4,#GRUPO-5,#GRUPO-6,#GRUPO-7,#GRUPO-8{animation:pisca linear;animation-duration:3s;opacity:1;animation-iteration-count:5}#GRUPO-2{animation-delay:.375s}#GRUPO-3{animation-delay:.75s}#GRUPO-4{animation-delay:1.125s}#GRUPO-5{animation-delay:1.5s}#GRUPO-6{animation-delay:1.875s}#GRUPO-7{animation-delay:2.25s}#GRUPO-8{animation-delay:2.625s}</style></svg>