<svg version="1" xmlns="http://www.w3.org/2000/svg" viewBox="10 0 845 202"><style>#CIRCULO-1_1_,#LINHA-1_1_{animation-iteration-count:6}#LINHA-1_1_{stroke-dasharray:60 200;stroke-dashoffset:60;animation:linha-1_1 1.5s linear}@keyframes linha-1_1{to{stroke-dashoffset:-200}}#CIRCULO-1_1_{opacity:0;animation:circulo-1-1 1.5s linear}@keyframes circulo-1-1{0%,60%,90%{opacity:0}63%,80%{opacity:1}}#LINHA-2_1_,#LINHA-9_1_{stroke-dasharray:60 250;stroke-dashoffset:60;animation:linha-2-1 2s linear;animation-iteration-count:6}@keyframes linha-2-1{to{stroke-dashoffset:-250}}#CIRCULO-2_1_,#CIRCULO-9_1_{opacity:0;animation:circulo-2-1 2s linear;animation-iteration-count:6}@keyframes circulo-2-1{0%,75%,to{opacity:0}80%,90%,95%{opacity:1}}#LINHA-4_1_{stroke-dasharray:60 250;stroke-dashoffset:60;animation:linha-4-1 2.5s linear}@keyframes linha-4-1{to{stroke-dashoffset:-250}}#CIRCULO-4_1_,#LINHA-4_1_,#LINHA-6_1_{animation-iteration-count:6}#CIRCULO-4_1_{opacity:0;animation:circulo-4-1 2.5s linear}@keyframes circulo-4-1{0%,65%,95%{opacity:0}70%,90%{opacity:1}}#LINHA-6_1_{stroke-dasharray:60 200;stroke-dashoffset:60;animation:linha-6-1 3s linear}@keyframes linha-6-1{to{stroke-dashoffset:-200}}#CIRCULO-6_1_{opacity:0;animation:circulo-6-1 3s linear}@keyframes circulo-6-1{0%,65%,95%{opacity:0}70%,90%{opacity:1}}#CIRCULO-6_1_,#CIRCULO-8_1_,#LINHA-8_1_{animation-iteration-count:6}#LINHA-8_1_{stroke-dasharray:60 200;stroke-dashoffset:60;animation:linha-8-1 1.5s linear}@keyframes linha-8-1{to{stroke-dashoffset:-200}}#CIRCULO-8_1_{opacity:0;animation:circulo-8-1 1.5s linear}@keyframes circulo-8-1{0%,60%,90%{opacity:0}63%,80%{opacity:1}}#LINHA-11_1_{stroke-dasharray:60 300;stroke-dashoffset:80;animation:linha-11-1 2s linear;animation-iteration-count:6}@keyframes linha-11-1{to{stroke-dashoffset:420}}#CIRCULO-11_1_{opacity:0;animation:circulo-11-1 2s linear;animation-iteration-count:6}@keyframes circulo-11-1{0%,75%,to{opacity:0}80%,90%{opacity:1}}#LINHA-13_1_{stroke-dasharray:60 200;stroke-dashoffset:60;animation:linha-13-1 3s linear;animation-iteration-count:6}@keyframes linha-13-1{to{stroke-dashoffset:-200}}#CIRCULO-13_1_{opacity:0;animation:circulo-13-1 3s linear;animation-iteration-count:6}@keyframes circulo-13-1{0%,65%,95%{opacity:0}70%,90%{opacity:1}}#LINHA-15_1_{stroke-dasharray:60 250;stroke-dashoffset:60;animation:linha-15-1 2s linear;animation-iteration-count:6}@keyframes linha-15-1{to{stroke-dashoffset:-250}}#CIRCULO-15_1_{opacity:0;animation:circulo-15-1 2s linear;animation-iteration-count:10}@keyframes circulo-15-1{0%,75%,to{opacity:0}80%,90%,95%{opacity:1}}</style><g id="GRUPO-4"><g id="L-14"><path id="LINHA-14" fill="none" stroke="#EF3E3E" stroke-width="9" stroke-miterlimit="10" d="M520 130.868h197.457l3.576 3.576"/><path fill="#EF3E3E" d="M727.557 153.69c-7.017 0-12.726-5.709-12.726-12.726s5.709-12.726 12.726-12.726 12.726 5.709 12.726 12.726-5.71 12.726-12.726 12.726zm0-18.451c-3.157 0-5.726 2.568-5.726 5.726s2.568 5.726 5.726 5.726 5.726-2.568 5.726-5.726-2.569-5.726-5.726-5.726z" id="CIRCULO-14"/></g><g id="L-14_ENERGIA"><path id="LINHA-14_1_" fill="none" stroke="#E83737" stroke-width="9" stroke-miterlimit="10" d="M520 130.868h197.457l3.576 3.576"/><path fill="#E83737" d="M727.557 153.69c-7.017 0-12.726-5.709-12.726-12.726s5.709-12.726 12.726-12.726 12.726 5.709 12.726 12.726-5.71 12.726-12.726 12.726zm0-18.451c-3.157 0-5.726 2.568-5.726 5.726s2.568 5.726 5.726 5.726 5.726-2.568 5.726-5.726-2.569-5.726-5.726-5.726z" id="CIRCULO-14_1_"/></g><g id="L-10"><path id="LINHA-10" fill="none" stroke="#CB2222" stroke-width="9" stroke-miterlimit="10" d="M520.146 52.449h154.959l6.554-6.555"/><path fill="#CB2222" d="M688.184 52.091c-7.017 0-12.726-5.708-12.726-12.726s5.709-12.726 12.726-12.726 12.726 5.708 12.726 12.726-5.71 12.726-12.726 12.726zm0-18.451c-3.157 0-5.726 2.568-5.726 5.726s2.568 5.726 5.726 5.726 5.726-2.568 5.726-5.726-2.569-5.726-5.726-5.726z" id="CIRCULO-10"/></g><g id="L-7"><path id="LINHA-7" fill="none" stroke="#CB2222" stroke-width="9" stroke-miterlimit="10" d="M168.227 163.639l13.076-13.088h175.553"/><path fill="#CB2222" d="M161.702 182.886c-7.017 0-12.726-5.709-12.726-12.726s5.708-12.726 12.726-12.726 12.726 5.709 12.726 12.726-5.709 12.726-12.726 12.726zm0-18.451c-3.157 0-5.726 2.568-5.726 5.726s2.568 5.726 5.726 5.726 5.726-2.568 5.726-5.726-2.569-5.726-5.726-5.726z" id="CIRCULO-7"/></g><g id="L-4"><path id="LINHA-4" fill="none" stroke="#EF3E3E" stroke-width="9" stroke-miterlimit="10" d="M356.854 91.746H142.773"/><path fill="#EF3E3E" d="M133.547 104.471c-7.017 0-12.726-5.709-12.726-12.726 0-7.017 5.708-12.725 12.726-12.725s12.726 5.708 12.726 12.725c0 7.017-5.709 12.726-12.726 12.726zm0-18.451a5.732 5.732 0 0 0-5.726 5.725c0 3.157 2.568 5.726 5.726 5.726s5.726-2.568 5.726-5.726a5.732 5.732 0 0 0-5.726-5.725z" id="CIRCULO-4"/></g><g id="L-4_ENERGIA"><path id="LINHA-4_1_" fill="none" stroke="#E83737" stroke-width="9" stroke-miterlimit="10" d="M356.854 91.746H142.773"/><path fill="#E83737" d="M133.547 104.471c-7.017 0-12.726-5.709-12.726-12.726 0-7.017 5.708-12.725 12.726-12.725s12.726 5.708 12.726 12.725c0 7.017-5.709 12.726-12.726 12.726zm0-18.451a5.732 5.732 0 0 0-5.726 5.725c0 3.157 2.568 5.726 5.726 5.726s5.726-2.568 5.726-5.726a5.732 5.732 0 0 0-5.726-5.725z" id="CIRCULO-4_1_"/></g></g><g id="GRUPO-3"><g id="L-16"><path fill="none" stroke="#CB2222" stroke-width="9" stroke-miterlimit="10" d="M520 170.075h165.942l7.322 7.322"/><path fill="#CB2222" d="M699.787 196.646c-7.017 0-12.726-5.709-12.726-12.726s5.709-12.726 12.726-12.726 12.726 5.709 12.726 12.726-5.709 12.726-12.726 12.726zm0-18.452c-3.157 0-5.726 2.568-5.726 5.726s2.568 5.726 5.726 5.726 5.726-2.568 5.726-5.726-2.569-5.726-5.726-5.726z"/></g><g id="L-12"><path fill="none" stroke="#CB2222" stroke-width="9" stroke-miterlimit="10" d="M520.141 91.659h186.906l19.608 19.609h45.783"/><path fill="#CB2222" d="M781.662 123.993c-7.017 0-12.726-5.709-12.726-12.726s5.709-12.726 12.726-12.726 12.726 5.709 12.726 12.726-5.709 12.726-12.726 12.726zm0-18.451c-3.157 0-5.726 2.568-5.726 5.726s2.568 5.726 5.726 5.726 5.726-2.568 5.726-5.726-2.569-5.726-5.726-5.726z"/></g><g id="L-5"><path fill="none" stroke="#CB2222" stroke-width="9" stroke-miterlimit="10" d="M64.959 130.954h68.015l19.609-19.609H357"/><path fill="#CB2222" d="M55.737 143.679c-7.017 0-12.726-5.709-12.726-12.726s5.708-12.726 12.726-12.726 12.726 5.709 12.726 12.726-5.709 12.726-12.726 12.726zm0-18.451c-3.157 0-5.726 2.568-5.726 5.726s2.568 5.726 5.726 5.726 5.726-2.568 5.726-5.726-2.569-5.726-5.726-5.726z"/></g><g id="L-3"><path fill="none" stroke="#CB2222" stroke-width="9" stroke-miterlimit="10" d="M176.808 64.776v.012l7.363 7.351H357"/><path fill="#CB2222" d="M170.286 70.984c-7.017 0-12.726-5.708-12.726-12.726 0-7.017 5.708-12.725 12.726-12.725s12.726 5.708 12.726 12.725c0 7.017-5.709 12.726-12.726 12.726zm0-18.451a5.732 5.732 0 0 0-5.726 5.725c0 3.157 2.568 5.726 5.726 5.726s5.726-2.568 5.726-5.726a5.733 5.733 0 0 0-5.726-5.725z"/></g></g><g id="GRUPO-2"><g id="L-13"><path id="LINHA-13" fill="none" stroke="#E42B2B" stroke-width="9" stroke-miterlimit="10" d="M520.146 111.264h158.812"/><path fill="#E42B2B" d="M688.184 123.99c-7.017 0-12.726-5.709-12.726-12.726s5.709-12.726 12.726-12.726 12.726 5.709 12.726 12.726-5.71 12.726-12.726 12.726zm0-18.451c-3.157 0-5.726 2.568-5.726 5.726s2.568 5.726 5.726 5.726 5.726-2.568 5.726-5.726-2.569-5.726-5.726-5.726z" id="CIRCULO-13"/></g><g id="L-13_ENERGIA"><path id="LINHA-13_1_" fill="none" stroke="#DA2526" stroke-width="9" stroke-miterlimit="10" d="M520.146 111.264h158.812"/><path fill="#DA2526" d="M688.184 123.99c-7.017 0-12.726-5.709-12.726-12.726s5.709-12.726 12.726-12.726 12.726 5.709 12.726 12.726-5.71 12.726-12.726 12.726zm0-18.451c-3.157 0-5.726 2.568-5.726 5.726s2.568 5.726 5.726 5.726 5.726-2.568 5.726-5.726-2.569-5.726-5.726-5.726z" id="CIRCULO-13_1_"/></g><g id="L-9"><path id="LINHA-9" fill="none" stroke="#E42B2B" stroke-width="9" stroke-miterlimit="10" d="M520 32.935h138.912l14.855-14.855h55.009"/><path fill="#E42B2B" d="M738.002 30.805c-7.017 0-12.726-5.708-12.726-12.726 0-7.017 5.709-12.725 12.726-12.725s12.726 5.708 12.726 12.725c0 7.018-5.709 12.726-12.726 12.726zm0-18.451a5.732 5.732 0 0 0-5.726 5.725c0 3.157 2.568 5.726 5.726 5.726s5.726-2.568 5.726-5.726a5.733 5.733 0 0 0-5.726-5.725z" id="CIRCULO-9"/></g><g id="L-9_ENERGIA"><path id="LINHA-9_1_" fill="none" stroke="#DA2526" stroke-width="9" stroke-miterlimit="10" d="M520 32.935h138.912l14.855-14.855h55.009"/><path fill="#DA2526" d="M738.002 30.805c-7.017 0-12.726-5.708-12.726-12.726 0-7.017 5.709-12.725 12.726-12.725s12.726 5.708 12.726 12.725c0 7.018-5.709 12.726-12.726 12.726zm0-18.451a5.732 5.732 0 0 0-5.726 5.725c0 3.157 2.568 5.726 5.726 5.726s5.726-2.568 5.726-5.726a5.733 5.733 0 0 0-5.726-5.725z" id="CIRCULO-9_1_"/></g><g id="L-8"><path id="LINHA-8" fill="none" stroke="#E42B2B" stroke-width="9" stroke-miterlimit="10" d="M357 170.16H207.997"/><path fill="#E42B2B" d="M198.771 182.886c-7.017 0-12.726-5.709-12.726-12.726s5.708-12.726 12.726-12.726 12.726 5.709 12.726 12.726-5.708 12.726-12.726 12.726zm0-18.451c-3.157 0-5.726 2.568-5.726 5.726s2.568 5.726 5.726 5.726 5.726-2.568 5.726-5.726-2.568-5.726-5.726-5.726z" id="CIRCULO-8"/></g><g id="L-8_ENERGIA"><path id="LINHA-8_1_" fill="none" stroke="#DA2526" stroke-width="9" stroke-miterlimit="10" d="M357 170.16H207.997"/><path fill="#DA2526" d="M198.771 182.886c-7.017 0-12.726-5.709-12.726-12.726s5.708-12.726 12.726-12.726 12.726 5.709 12.726 12.726-5.708 12.726-12.726 12.726zm0-18.451c-3.157 0-5.726 2.568-5.726 5.726s2.568 5.726 5.726 5.726 5.726-2.568 5.726-5.726-2.568-5.726-5.726-5.726z" id="CIRCULO-8_1_"/></g><g id="L-2"><path id="LINHA-2" fill="none" stroke="#E42B2B" stroke-width="9" stroke-miterlimit="10" d="M356.854 52.539H199.49l-14.855-14.856h-55.009"/><path fill="#E42B2B" d="M120.4 50.409c-7.017 0-12.726-5.708-12.726-12.725 0-7.017 5.708-12.726 12.726-12.726s12.726 5.708 12.726 12.726c-.001 7.016-5.709 12.725-12.726 12.725zm0-18.451a5.732 5.732 0 0 0-5.726 5.726c0 3.157 2.568 5.725 5.726 5.725s5.726-2.568 5.726-5.725a5.733 5.733 0 0 0-5.726-5.726z" id="CIRCULO-2"/></g><g id="L-2_ENERGIA"><path id="LINHA-2_1_" fill="none" stroke="#DA2526" stroke-width="9" stroke-miterlimit="10" d="M356.854 52.539H199.49l-14.855-14.856h-55.009"/><path fill="#DA2526" d="M120.4 50.409c-7.017 0-12.726-5.708-12.726-12.725 0-7.017 5.708-12.726 12.726-12.726s12.726 5.708 12.726 12.726c-.001 7.016-5.709 12.725-12.726 12.725zm0-18.451a5.732 5.732 0 0 0-5.726 5.726c0 3.157 2.568 5.725 5.726 5.725s5.726-2.568 5.726-5.725a5.733 5.733 0 0 0-5.726-5.726z" id="CIRCULO-2_1_"/></g></g><g id="GRUPO-1"><g id="L-15"><path id="LINHA-15" fill="none" stroke="#E42B2B" stroke-width="9" stroke-miterlimit="10" d="M520 150.551h182l19.598 19.609h39.095"/><path fill="#E42B2B" d="M769.92 182.886c-7.017 0-12.726-5.709-12.726-12.726s5.709-12.726 12.726-12.726 12.726 5.709 12.726 12.726-5.709 12.726-12.726 12.726zm0-18.451c-3.157 0-5.726 2.568-5.726 5.726s2.568 5.726 5.726 5.726 5.726-2.568 5.726-5.726-2.569-5.726-5.726-5.726z" id="CIRCULO-15"/></g><g id="L-15_ENERGIA"><path id="LINHA-15_1_" fill="none" stroke="#DA2526" stroke-width="9" stroke-miterlimit="10" d="M520 150.551h182l19.598 19.609h39.095"/><path fill="#DA2526" d="M769.92 182.886c-7.017 0-12.726-5.709-12.726-12.726s5.709-12.726 12.726-12.726 12.726 5.709 12.726 12.726-5.709 12.726-12.726 12.726zm0-18.451c-3.157 0-5.726 2.568-5.726 5.726s2.568 5.726 5.726 5.726 5.726-2.568 5.726-5.726-2.569-5.726-5.726-5.726z" id="CIRCULO-15_1_"/></g><g id="L-11"><path id="LINHA-11" fill="none" stroke="#EF3E3E" stroke-width="9" stroke-miterlimit="10" d="M789.352 52.449h-20.698l-19.609 19.608H520"/><path fill="#EF3E3E" d="M798.574 65.175c-7.017 0-12.726-5.708-12.726-12.726s5.709-12.726 12.726-12.726S811.3 45.433 811.3 52.45s-5.709 12.725-12.726 12.725zm0-18.451c-3.157 0-5.726 2.568-5.726 5.726s2.568 5.726 5.726 5.726 5.726-2.568 5.726-5.726-2.569-5.726-5.726-5.726z" id="CIRCULO-11"/></g><g id="L-11_ENERGIA"><path id="LINHA-11_1_" fill="none" stroke="#E83737" stroke-width="9" stroke-miterlimit="10" d="M789.352 52.449h-20.698l-19.609 19.608H520"/><path fill="#E83737" d="M798.574 65.175c-7.017 0-12.726-5.708-12.726-12.726s5.709-12.726 12.726-12.726S811.3 45.433 811.3 52.45s-5.709 12.725-12.726 12.725zm0-18.451c-3.157 0-5.726 2.568-5.726 5.726s2.568 5.726 5.726 5.726 5.726-2.568 5.726-5.726-2.569-5.726-5.726-5.726z" id="CIRCULO-11_1_"/></g><g id="L-6"><path id="LINHA-6" fill="none" stroke="#EF3E3E" stroke-width="9" stroke-miterlimit="10" d="M356.854 130.953H181.34"/><path fill="#EF3E3E" d="M172.115 143.679c-7.017 0-12.726-5.709-12.726-12.726s5.708-12.726 12.726-12.726 12.726 5.709 12.726 12.726-5.709 12.726-12.726 12.726zm0-18.451c-3.157 0-5.726 2.568-5.726 5.726s2.568 5.726 5.726 5.726 5.726-2.568 5.726-5.726-2.569-5.726-5.726-5.726z" id="CIRCULO-6"/></g><g id="L-6_ENERGIA"><path id="LINHA-6_1_" fill="none" stroke="#E83737" stroke-width="9" stroke-miterlimit="10" d="M356.854 130.953H181.34"/><path fill="#E83737" d="M172.115 143.679c-7.017 0-12.726-5.709-12.726-12.726s5.708-12.726 12.726-12.726 12.726 5.709 12.726 12.726-5.709 12.726-12.726 12.726zm0-18.451c-3.157 0-5.726 2.568-5.726 5.726s2.568 5.726 5.726 5.726 5.726-2.568 5.726-5.726-2.569-5.726-5.726-5.726z" id="CIRCULO-6_1_"/></g><g id="L-1"><path id="LINHA-1" fill="none" stroke="#EF3E3E" stroke-width="9" stroke-miterlimit="10" d="M357 34.085H215.686l-7.322-7.321"/><path fill="#EF3E3E" d="M201.841 32.966c-7.017 0-12.726-5.708-12.726-12.726s5.708-12.726 12.726-12.726 12.726 5.708 12.726 12.726-5.709 12.726-12.726 12.726zm0-18.451c-3.157 0-5.726 2.568-5.726 5.726s2.568 5.726 5.726 5.726 5.726-2.568 5.726-5.726-2.569-5.726-5.726-5.726z" id="CIRCULO-1"/></g><g id="L-1_ENERGIA"><path id="LINHA-1_1_" fill="none" stroke="#E83737" stroke-width="9" stroke-miterlimit="10" d="M357 34.085H215.686l-7.322-7.321"/><path fill="#E83737" d="M201.841 32.966c-7.017 0-12.726-5.708-12.726-12.726s5.708-12.726 12.726-12.726 12.726 5.708 12.726 12.726-5.709 12.726-12.726 12.726zm0-18.451c-3.157 0-5.726 2.568-5.726 5.726s2.568 5.726 5.726 5.726 5.726-2.568 5.726-5.726-2.569-5.726-5.726-5.726z" id="CIRCULO-1_1_"/></g></g></svg>