<svg width="22" height="26" fill="#747c81" stroke="#747c81" xmlns="http://www.w3.org/2000/svg"><g clip-path="url(#a)" fill-rule="evenodd" clip-rule="evenodd"><path d="M5.28 1.885v22.88H4.24V1.885h1.04z" stroke-miterlimit="10" stroke-linecap="square"/><path d="M.405 1.04h18.65c1.298 0 2.41 1.015 2.41 2.34v20.28c0 1.325-1.112 2.34-2.41 2.34H.404V1.04zm1.56 1.56v21.84h17.09c.502 0 .85-.382.85-.78V3.38c0-.398-.348-.78-.85-.78H1.964z" stroke-width=".3" stroke-miterlimit="10" stroke-linecap="square"/><path d="M12.885 10.01a.78.78 0 1 0 0 1.56.78.78 0 0 0 0-1.56zm-2.34.78a2.34 2.34 0 1 1 4.68 0 2.34 2.34 0 0 1-4.68 0zM9.898 16.64h5.974a2.341 2.341 0 0 0-2.207-1.56h-1.56a2.341 2.341 0 0 0-2.207 1.56zm-1.693.78a3.9 3.9 0 0 1 3.9-3.9h1.56a3.9 3.9 0 0 1 3.9 3.9v.78h-9.36v-.78z" stroke="none"/></g><defs><clipPath id="a"><path transform="translate(.08)" d="M0 0h21.84v27.04H0z"/></clipPath></defs></svg>