<svg width="24" height="19" fill="#747C81" xmlns="http://www.w3.org/2000/svg"><path d="M20.317 2.446A20.02 20.02 0 0 0 15.432.96a.075.075 0 0 0-.079.036c-.21.368-.444.848-.608 1.227a18.597 18.597 0 0 0-5.487 0c-.182-.42-.388-.83-.617-1.227a.077.077 0 0 0-.079-.038c-1.714.29-3.354.798-4.885 1.488a.07.07 0 0 0-.032.027C.533 7.039-.32 11.494.1 15.892a.08.08 0 0 0 .031.055 20.043 20.043 0 0 0 5.993 2.975.078.078 0 0 0 .084-.026c.462-.619.874-1.273 1.226-1.96a.074.074 0 0 0-.04-.104 13.213 13.213 0 0 1-1.873-.876.076.076 0 0 1-.037-.06.075.075 0 0 1 .03-.065c.125-.093.251-.19.371-.286a.075.075 0 0 1 .078-.01c3.927 1.76 8.18 1.76 12.061 0a.075.075 0 0 1 .079.009c.12.098.245.194.372.287a.074.074 0 0 1 .03.064.075.075 0 0 1-.036.061c-.598.343-1.22.634-1.873.875a.074.074 0 0 0-.044.044.076.076 0 0 0 .003.061c.36.686.772 1.339 1.225 1.959a.077.077 0 0 0 .084.028 19.975 19.975 0 0 0 6.002-2.976.075.075 0 0 0 .032-.054c.5-5.085-.838-9.504-3.55-13.419a.06.06 0 0 0-.03-.028ZM8.02 13.214c-1.182 0-2.157-1.068-2.157-2.376 0-1.31.956-2.376 2.157-2.376 1.21 0 2.176 1.075 2.157 2.376 0 1.31-.956 2.376-2.157 2.376Zm7.975 0c-1.183 0-2.157-1.068-2.157-2.376 0-1.31.955-2.376 2.157-2.376 1.21 0 2.176 1.075 2.157 2.376 0 1.31-.946 2.376-2.157 2.376Z"/></svg>