<svg width="26" height="26" fill="#747C81" stroke="#747C81" xmlns="http://www.w3.org/2000/svg"><path fill-rule="evenodd" clip-rule="evenodd" d="M19.538 2.6H3.662v20.8h15.877c.611 0 1.107-.478 1.107-1.067V3.667c0-.59-.496-1.067-1.108-1.067zM2 1v24h17.538c1.53 0 2.77-1.194 2.77-2.667V3.667c0-1.473-1.24-2.667-2.77-2.667H2z" stroke="none"/><path fill-rule="evenodd" clip-rule="evenodd" d="M3.462 2.4h16.076c.715 0 1.308.56 1.308 1.267v18.666c0 .707-.593 1.267-1.308 1.267H3.462V2.4zm16.076 22.4c1.427 0 2.57-1.111 2.57-2.467V3.667c0-1.356-1.143-2.467-2.57-2.467H2.2v23.6h17.338zm0-22.2c.612 0 1.108.478 1.108 1.067v18.666c0 .59-.496 1.067-1.108 1.067H3.662V2.6h15.877zM2 1h17.538c1.53 0 2.77 1.194 2.77 2.667v18.666c0 1.473-1.24 2.667-2.77 2.667H2V1z" stroke="none"/><path fill-rule="evenodd" clip-rule="evenodd" d="M7.446 1.978v22.044H5.784V1.978h1.662z" stroke="none"/><path fill-rule="evenodd" clip-rule="evenodd" d="M5.685 1.878h1.861v22.244H5.685V1.878zm.2.2v21.844h1.461V2.078H5.885zM24.5 4v4.778H23V4h1.5zM24.5 10.697v4.779H23v-4.779h1.5z" stroke="none"/></svg>