<svg width="24" height="18" fill="#747C81" stroke="#747C81" xmlns="http://www.w3.org/2000/svg"><path d="M6.411 16.028c3.186 0 6.411-1.101 6.411-3.206V3.206C12.822 1.1 9.597 0 6.412 0 3.224 0 0 1.101 0 3.206v9.616c0 2.105 3.225 3.206 6.411 3.206zm0-1.603c-2.983 0-4.808-1.038-4.808-1.603v-1.016c1.235.672 3.027 1.016 4.808 1.016 1.782 0 3.574-.344 4.808-1.016v1.016c0 .565-1.825 1.603-4.808 1.603zm0-12.822c2.983 0 4.808 1.038 4.808 1.603S9.394 4.808 6.411 4.808c-2.983 0-4.808-1.037-4.808-1.602 0-.565 1.825-1.603 4.808-1.603zM1.603 5.395C2.838 6.067 4.63 6.41 6.41 6.41c1.782 0 3.574-.344 4.808-1.016V6.41c0 .565-1.825 1.603-4.808 1.603-2.983 0-4.808-1.038-4.808-1.603V5.395zm0 3.206c1.235.671 3.027 1.016 4.808 1.016 1.782 0 3.574-.345 4.808-1.016v1.016c0 .565-1.825 1.602-4.808 1.602-2.983 0-4.808-1.037-4.808-1.602V8.6z" stroke="none"/><path fill-rule="evenodd" clip-rule="evenodd" d="M18.031 7.17a4.45 4.45 0 1 0 0 8.9 4.45 4.45 0 0 0 0-8.9zm-5.968 4.45a5.969 5.969 0 1 1 11.937 0 5.969 5.969 0 0 1-11.938 0z" stroke="none"/><path fill-rule="evenodd" clip-rule="evenodd" d="M18.599 8.545a1.918 1.918 0 0 1 1.711.96.76.76 0 1 1-1.316.758.397.397 0 0 0-.358-.198h-1.183a.398.398 0 1 0 0 .796h1.157a1.917 1.917 0 1 1 0 3.834h-1.146a1.917 1.917 0 0 1-1.711-.959.76.76 0 1 1 1.316-.759.399.399 0 0 0 .384.199h1.157a.398.398 0 1 0 0-.796h-1.157a1.917 1.917 0 0 1 0-3.835h1.146z" stroke="none"/><path fill-rule="evenodd" clip-rule="evenodd" d="M18.031 7.388c.42 0 .76.34.76.76v1.157a.76.76 0 1 1-1.52 0V8.147c0-.42.34-.76.76-.76zm0 5.787c.42 0 .76.34.76.76v1.158a.76.76 0 1 1-1.52 0v-1.158c0-.42.34-.76.76-.76z" stroke="none"/></svg>