<svg width="26" height="25" fill="#747C81" xmlns="http://www.w3.org/2000/svg"><path fill-rule="evenodd" clip-rule="evenodd" d="M11.371 18.34c1.196-.415 2.602-.506 3.722-.506 2.294 0 3.849.411 4.858 1.047 1.028.646 1.488 1.534 1.488 2.35v3.765H8.748v-3.829l.01-.063c.24-1.534 1.413-2.35 2.613-2.765zm3.722 1.128c-1.067 0-2.253.093-3.187.416-.904.313-1.399.77-1.523 1.416v2.061h9.42v-2.13c0-.168-.093-.57-.723-.967-.65-.409-1.858-.796-3.987-.796zM17.166 13.123v-1.382a2.073 2.073 0 0 0-4.145 0v1.382a2.073 2.073 0 0 0 4.145 0zm-2.072-4.837a3.455 3.455 0 0 0-3.455 3.455v1.382a3.455 3.455 0 1 0 6.91 0v-1.382a3.455 3.455 0 0 0-3.455-3.455z"/><path fill-rule="evenodd" clip-rule="evenodd" d="M11.512 11.741a3.581 3.581 0 0 1 7.162 0v1.382a3.581 3.581 0 1 1-7.162 0v-1.382zm3.581-1.946a1.946 1.946 0 0 0-1.946 1.946v1.382a1.946 1.946 0 0 0 3.892 0v-1.382a1.946 1.946 0 0 0-1.946-1.946zM7.003 13.866v-1.112a1.667 1.667 0 1 0-3.335 0v1.112a1.667 1.667 0 1 0 3.335 0zm-1.668-3.89a2.779 2.779 0 0 0-2.778 2.778v1.112a2.779 2.779 0 1 0 5.557 0v-1.112a2.779 2.779 0 0 0-2.779-2.779z"/><path fill-rule="evenodd" clip-rule="evenodd" d="M2.43 12.754a2.905 2.905 0 1 1 5.81 0v1.112a2.905 2.905 0 1 1-5.81 0v-1.112zm2.905-1.54c-.85 0-1.54.69-1.54 1.54v1.112a1.54 1.54 0 0 0 3.08 0v-1.112c0-.85-.69-1.54-1.54-1.54zM3.263 18.928l-.051.017a.694.694 0 0 1-.05.014c-.37.093-.826.393-1.23.772a4.212 4.212 0 0 0-.47.52 1.8 1.8 0 0 0-.128.19v1.539h6.258v1.334H.667A.667.667 0 0 1 0 22.647v-2.334c0-.055.007-.11.02-.162.062-.249.226-.503.375-.701.166-.221.38-.46.623-.69.464-.437 1.11-.909 1.795-1.088l.049-.016c.484-.162 1.074-.36 1.907-.369.865-.01 1.948.182 3.462.732l.626.228-.854 1.025h-.228c-1.421-.516-2.339-.659-2.991-.651-.62.007-1.04.147-1.521.307zM17.296.877h8.509v6.244h-3.252l-3.637 2.493V7.12h-1.62V.877zm1.218 5.055h1.62v1.394l2.034-1.394h2.42V2.067h-6.074v3.865zM6.134.877h8.509v6.244H11.39L7.754 9.614V7.12h-1.62V.877zM7.35 5.932h1.62v1.394l2.035-1.394h2.42V2.067H7.35v3.865z"/></svg>