<svg width="25" height="15" fill="none" xmlns="http://www.w3.org/2000/svg"><path fill-rule="evenodd" clip-rule="evenodd" d="M11.272 3.958h2.083V0h-2.083v3.958zM2.86 8.822l1.455-1.455-2.86-2.86L0 5.961l2.86 2.86zm3.215 3.229l1.456-1.456L5.146 8.21 3.69 9.665l2.386 2.386zm5.197-2.993h2.078V5.75h-2.078v3.308zM4.65 14.815l.812-1.918-3.783-1.603-.813 1.918 3.784 1.603zm3.703-4.84l1.931-.782-1.542-3.809-1.93.782 1.54 3.809zm6.041-.804l1.919.813L17.917 6.2l-1.918-.813-1.604 3.784zm4.24 2.88l-1.455-1.455 2.386-2.386 1.456 1.455-2.386 2.386zm3.504-3.229l-1.455-1.455 2.86-2.86L25 5.961l-2.86 2.86zm-2.078 5.993l-.813-1.918 3.784-1.604.813 1.919-3.784 1.603z" fill="#747C81"/></svg>