<svg version="1.1" id="Layer_1" xmlns="http://www.w3.org/2000/svg" x="0" y="0" viewBox="0 0 25 25" xml:space="preserve"><style>.st0{fill:#747c82}</style><path class="st0" d="M4.9 5.4h8.6v2H4.9zM4.9 9.9h5.6v2H4.9zM4.9 14.5h5.6v2H4.9z"/><path class="st0" d="M24.7 13c0-2.7-2-5-4.6-5.5V.3H.4v21.3h12.7v-2H2.4V2.3h15.7v5.2c-2.6.5-4.6 2.7-4.6 5.5 0 1.5.6 2.8 1.5 3.8v7.9l4-2 4 2v-7.9c1.1-1 1.7-2.4 1.7-3.8zm-5.6-3.6c2 0 3.6 1.6 3.6 3.6s-1.6 3.6-3.6 3.6-3.6-1.6-3.6-3.6c.1-2 1.7-3.6 3.6-3.6zm0 11.1l-2 1v-3.4c.6.3 1.3.4 2 .4s1.4-.1 2-.4v3.4l-2-1z"/></svg>