<svg width="0" height="0" xmlns="http://www.w3.org/2000/svg"><defs><svg id="programacao" viewBox="0 0 17 20"><path d="M9.166 9.524 5.703 6.062a1.039 1.039 0 1 0-1.47 1.47l2.823 2.822-2.822 2.822a1.04 1.04 0 0 0 1.47 1.47l3.462-3.461c.227-.228.327-.533.3-.83a1.037 1.037 0 0 0-.3-.829v-.002zm6.484 3.6h-5.03a1.039 1.039 0 0 0 0 2.078h5.03a1.04 1.04 0 1 0 0-2.08v.002zm.055 4.265H2.269c-.178 0-.3-.142-.3-.32V2.336c0-.179.122-.367.3-.367h13.437a.984.984 0 1 0 0-1.969H2.27C1.003 0 0 1.069 0 2.336v14.733a2.269 2.269 0 0 0 2.269 2.288h13.437a.984.984 0 1 0 0-1.968h-.001z"/></svg><svg id="mobile" viewBox="0 0 24 22"><path d="M12.451 20.014H2.548c-.272 0-.468-.206-.468-.514v-3.728h10.84V19.5c0 .308-.197.514-.469.514zM2.548 1.99h9.903c.272 0 .468.196.468.443V14.2H2.08V2.433c0-.247.197-.443.469-.443zM15 2.462C15 1.102 13.848 0 12.427 0H2.573C1.153 0 0 1.102 0 2.462v17.076C0 20.898 1.152 22 2.573 22h9.854a2.64 2.64 0 0 0 1.82-.721A2.41 2.41 0 0 0 15 19.538V2.462zm-7.338 14.45h-.124a1.18 1.18 0 0 0-1.175 1.185 1.18 1.18 0 0 0 1.175 1.183h.124c.65 0 1.175-.53 1.175-1.183a1.18 1.18 0 0 0-1.175-1.184z" transform="translate(4.5)"/></svg><svg id="front-end" viewBox="0 0 21 21"><path d="M9.843 1.992a.996.996 0 0 0 0-1.992h-8.67C.882 0 .563.066.38.263.184.445 0 .648 0 .938v8.67a.996.996 0 0 0 1.992 0V1.993h7.85zm9.606 7.847a.995.995 0 0 0-.996.997v7.851h-7.617a.996.996 0 1 0 0 1.992h8.67c.29 0 .492-.183.675-.38.197-.182.263-.5.263-.79v-8.673a.996.996 0 0 0-.997-.997h.002zM9.285 14.44a.88.88 0 0 0 1.757 0v-2.446l2.28 1.282a.98.98 0 0 0 .468.118.903.903 0 0 0 .777-.44.876.876 0 0 0-.314-1.2l-2.175-1.26 2.183-1.26a.878.878 0 0 0 .321-1.201c-.241-.42-.838-.564-1.258-.321l-2.28 1.282V6.473a.88.88 0 0 0-1.758 0V8.95l-2.08-1.236a.847.847 0 0 0-1.173.321.886.886 0 0 0 .338 1.201l2.187 1.26-2.176 1.259a.88.88 0 0 0 .443 1.639c.148 0 .24-.038.38-.119l2.08-1.235v2.4z"/></svg><svg id="devops" viewBox="0 0 23 23"><path d="M11.19 18.67c-4.108 0-7.447-3.343-7.447-7.45 0-4.108 3.34-7.45 7.447-7.45 4.108 0 7.45 3.343 7.45 7.45 0 4.108-3.342 7.45-7.448 7.45h-.002zm10.934-9.018-1.847-.343a9.231 9.231 0 0 0-1.308-3.178l1.093-1.573a.298.298 0 0 0 .004-.422l-1.793-1.795a.298.298 0 0 0-.42 0l-1.574 1.085a9.26 9.26 0 0 0-3.177-1.32L12.759.263C12.759.1 12.625 0 12.46 0H9.92c-.164 0-.298.1-.298.264L9.28 2.122a9.24 9.24 0 0 0-3.179 1.313L4.528 2.346a.298.298 0 0 0-.422-.003L2.311 4.138a.298.298 0 0 0 0 .42l1.086 1.573a9.258 9.258 0 0 0-1.32 3.178L.25 9.653c-.164 0-.25.134-.25.298v2.539c0 .164.086.298.25.298l1.85.343a9.237 9.237 0 0 0 1.31 3.178l-1.092 1.573a.298.298 0 0 0-.005.422l1.794 1.797a.298.298 0 0 0 .421 0l1.573-1.087a9.243 9.243 0 0 0 3.178 1.32l.343 1.805c0 .164.134.227.298.227h2.54c.164 0 .298-.063.298-.227l.343-1.84a9.227 9.227 0 0 0 3.178-1.303l1.573 1.096a.298.298 0 0 0 .422.003l1.795-1.793a.298.298 0 0 0 0-.421l-1.084-1.574a9.258 9.258 0 0 0 1.321-3.177l1.82-.344c.164 0 .24-.135.24-.299V9.95c0-.164-.076-.299-.24-.299l-.002.001zM11.19 7.842a3.382 3.382 0 0 0-3.377 3.378 3.382 3.382 0 0 0 3.377 3.377 3.38 3.38 0 0 0 3.377-3.377 3.38 3.38 0 0 0-3.377-3.377zm0 4.891a1.513 1.513 0 1 1 0-3.026 1.513 1.513 0 0 1 0 3.026z"/></svg><svg id="design-ux" viewBox="0 0 24 19"><path d="M23.783 8.582c-.047-.086-1.146-2.111-3.123-4.155C17.984 1.662 14.97.2 11.943.2S5.902 1.662 3.226 4.427C1.248 6.47.15 8.496.103 8.582a.865.865 0 0 0-.087.572.864.864 0 0 0 .087.573c.047.085 1.145 2.11 3.123 4.154 2.676 2.765 5.69 4.227 8.717 4.227 3.026 0 6.04-1.462 8.717-4.227 1.976-2.044 3.076-4.07 3.122-4.154a.87.87 0 0 0 .087-.573.865.865 0 0 0-.087-.574v.002zm-11.84 7.787c-5.552 0-9.39-5.918-10.166-7.216.773-1.3 4.598-7.215 10.165-7.215 5.552 0 9.39 5.916 10.164 7.215-.775 1.3-4.612 7.216-10.164 7.216zm1.36-7.288c0-.416.338-.868.757-.868h1.842c-.362-1.737-1.999-3.183-3.966-3.183-2.232 0-4.041 1.85-4.041 4.082 0 2.232 1.81 4.094 4.04 4.094 1.981 0 3.628-1.517 3.973-3.255H14.06c-.418 0-.755-.452-.755-.869l-.001-.001z"/></svg><svg id="data-science" viewBox="0 0 22 21"><path d="M3.84.523c-.96-.038-1.9.205-2.53.887C.679 2.09.505 3.04.609 4c.105.97.471 2 1.03 3.12.52 1.02 1.23 2.1 2.06 3.18-.84 1.1-1.54 2.2-2.06 3.2-.56 1.1-.928 2.2-1.03 3.1-.107 1 .065 2 .7 2.6.63.7 1.56 1 2.53.9.97 0 2.02-.3 3.17-.8 1.2-.5 2.49-1.3 3.79-2.2 1.3.9 2.6 1.7 3.8 2.2s2.2.8 3.2.8c1 .1 1.9-.2 2.5-.9.7-.6.8-1.6.7-2.6-.1-.9-.4-2-1-3.1-.5-1-1.2-2.1-2.1-3.2.9-1.08 1.6-2.16 2.1-3.18.6-1.12.9-2.15 1-3.12.1-.96 0-1.91-.7-2.59-.6-.682-1.5-.925-2.5-.887-1 .039-2 .332-3.2.817-1.2.51-2.5 1.26-3.8 2.18-1.3-.92-2.59-1.67-3.79-2.18-1.15-.485-2.21-.778-3.17-.817zm-.07 1.7c.66.03 1.56.25 2.57.69.93.39 1.96.97 3.04 1.69-.73.57-1.45 1.17-2.16 1.84-.88.83-1.67 1.68-2.4 2.52-.67-.91-1.25-1.8-1.66-2.61-.5-.99-.79-1.87-.86-2.53s.05-1.04.26-1.26c.2-.21.56-.36 1.21-.34zm14.1 0c.6-.02 1 .13 1.2.34.2.22.3.6.2 1.26 0 .66-.3 1.54-.8 2.53-.4.81-1 1.7-1.7 2.61-.7-.84-1.5-1.69-2.4-2.52-.7-.67-1.4-1.27-2.1-1.84 1-.72 2.1-1.3 3-1.69 1-.44 1.9-.66 2.6-.69zm-7.1 3.42c.8.62 1.7 1.28 2.5 2.04.9.87 1.7 1.76 2.4 2.62-.7.9-1.5 1.8-2.4 2.7-.8.7-1.7 1.4-2.5 2-.8-.6-1.61-1.3-2.42-2h-.01c-.92-.9-1.73-1.8-2.47-2.7.74-.86 1.55-1.75 2.48-2.62.81-.76 1.62-1.42 2.42-2.04zM9.3 8.503a.46.46 0 0 0-.46.46v1.14h3.93V8.913v.02a.46.46 0 0 0-.5-.43H9.3zm-.41 2v.1h-.05.05v1a.46.46 0 0 0 .46.5h3.02a.46.46 0 0 0 .4-.5v-1.1H8.89zm-4.1 1.2c.73.8 1.52 1.7 2.4 2.5a.85.85 0 0 0 .09.1c.68.6 1.38 1.2 2.07 1.7-1.07.8-2.11 1.3-3.04 1.7-1.01.5-1.91.7-2.57.7s-1.01-.1-1.22-.3c-.2-.2-.32-.6-.25-1.3.07-.6.36-1.5.86-2.5.41-.8.99-1.7 1.66-2.6zm12 0c.7.9 1.3 1.8 1.7 2.6.5 1 .8 1.9.8 2.5.1.7 0 1.1-.2 1.3s-.6.3-1.2.3c-.7 0-1.6-.2-2.6-.7-.9-.4-2-.9-3-1.7.7-.5 1.3-1.1 2-1.7a.85.85 0 0 0 .1-.1c.9-.8 1.7-1.7 2.4-2.5z"/></svg><symbol id="inovacao-gestao" viewBox="0 0 45 45"><path d="M15.612 38.715h13.776a1.647 1.717 0 1 0 0-3.433H15.612a1.647 1.717 0 0 0 0 3.433zm8.535-1.717V13.66a1.647 1.717 0 0 0-3.294 0v23.337a1.647 1.717 0 0 0 3.294 0zm6.963-23.261h-1.722a8.535 8.899 0 0 0-8.535 8.899v3.59c0 .949.737 1.718 1.647 1.718h1.722a8.535 8.899 0 0 0 8.535-8.899v-3.59a1.647 1.717 0 0 0-1.647-1.718zm-1.646 5.308a5.24 5.464 0 0 1-5.242 5.464h-.075v-1.873a5.24 5.464 0 0 1 5.241-5.464h.076v1.873zm-15.5 15.486v7.853c0 .949.738 1.717 1.648 1.717h13.776a1.647 1.717 0 0 0 1.647-1.717V34.53a17.12 17.85 0 0 0 8.61-15.486C39.646 9.173 31.97 1.17 22.5 1.17S5.354 9.173 5.354 19.045a17.12 17.85 0 0 0 8.61 15.486zm3.295 6.137v-7.164a1.647 1.717 0 0 0-.913-1.537 13.836 14.425 0 0 1-7.699-12.922 13.853 14.442 0 1 1 27.706 0 13.836 14.425 0 0 1-7.699 12.922 1.647 1.717 0 0 0-.913 1.537v7.164H17.259z"/></symbol></defs></svg>